<mxfile host="drawio-plugin" modified="2022-01-24T11:28:27.465Z" agent="5.0 (Windows NT 6.2; Win64; x64) AppleWebKit/537.36 (KHTML, like Gecko) Chrome/89.0.4389.114 Safari/537.36" etag="bVooGi2S4V31kkVPcLJ_" version="14.7.4" type="embed"><diagram id="e1YSu8DsM2RsHK_Zruqg" name="Seite-1-StartSeite"><mxGraphModel dx="4612" dy="982" grid="1" gridSize="10" guides="1" tooltips="1" connect="1" arrows="1" fold="1" page="1" pageScale="1" pageWidth="827" pageHeight="1169" math="0" shadow="0"><root><mxCell id="0"/><mxCell id="1" parent="0"/><mxCell id="174" value="" style="whiteSpace=wrap;html=1;aspect=fixed;labelBackgroundColor=#333333;fillColor=#6d8764;strokeColor=#3A5431;fontColor=#ffffff;" parent="1" vertex="1"><mxGeometry x="-2040" y="1371.75" width="3540" height="3540" as="geometry"/></mxCell><mxCell id="34" value="" style="shape=image;html=1;verticalLabelPosition=bottom;verticalAlign=top;imageAspect=1;aspect=fixed;image=img/clipart/Gear_128x128.png;fontFamily=Helvetica;fontSize=13;fontColor=#FFFFFF;labelBackgroundColor=none;" parent="1" vertex="1"><mxGeometry x="283.65" y="2880" width="272.7" height="319.9" as="geometry"/></mxCell><mxCell id="35" value="&lt;div&gt;&lt;br&gt;&lt;/div&gt;" style="whiteSpace=wrap;html=1;aspect=fixed;glass=0;fillOpacity=0;strokeOpacity=100;fontColor=#FFFFFF;labelBackgroundColor=none;gradientDirection=north;gradientColor=#33FF33;fillColor=#FFFF66;" parent="1" vertex="1"><mxGeometry x="152" y="2782.5" width="560" height="560" as="geometry"/></mxCell><mxCell id="36" value="&lt;h3&gt;Einstellungen&lt;/h3&gt;" style="text;html=1;align=center;verticalAlign=middle;whiteSpace=wrap;rounded=0;fontFamily=Helvetica;fontSize=13;fontColor=#FFFFFF;labelBackgroundColor=none;" parent="1" vertex="1"><mxGeometry x="364" y="2800" width="120" height="30" as="geometry"/></mxCell><mxCell id="102" value="zur startseite" style="labelPosition=center;verticalLabelPosition=middle;align=center;html=1;shape=mxgraph.basic.shaded_button;dx=10;fontSize=17;fontColor=#FFFFFF;labelBackgroundColor=none;" parent="1" vertex="1"><mxGeometry x="370" y="3290" width="120" height="35" as="geometry"/></mxCell><mxCell id="103" value="&lt;h1 style=&quot;font-family: &amp;#34;helvetica&amp;#34; ; font-style: normal ; letter-spacing: normal ; text-indent: 0px ; text-transform: none ; word-spacing: 0px ; font-size: 29px&quot;&gt;Einstellungen&lt;/h1&gt;&lt;div&gt;&lt;ol style=&quot;font-size: 27px&quot;&gt;&lt;li&gt;schieberegler für skalierung des spiel-feldes&lt;/li&gt;&lt;li&gt;button fur die sounds&lt;/li&gt;&lt;li&gt;&amp;nbsp;farbskala für die verschiedenen player&lt;/li&gt;&lt;li&gt;farbskala für das spielfeld&lt;/li&gt;&lt;/ol&gt;&lt;/div&gt;" style="text;whiteSpace=wrap;html=1;fontSize=13;fontFamily=Helvetica;align=center;fontColor=#FFFFFF;labelBackgroundColor=none;" parent="1" vertex="1"><mxGeometry x="205" y="2490" width="450" height="280" as="geometry"/></mxCell><mxCell id="175" value="" style="shape=image;html=1;verticalLabelPosition=bottom;verticalAlign=top;imageAspect=1;aspect=fixed;image=img/clipart/Gear_128x128.png;glass=0;fontFamily=Helvetica;fontSize=13;fontColor=#FFFFFF;labelBackgroundColor=none;" parent="1" vertex="1"><mxGeometry x="-401.80999999999995" y="2834" width="383.61" height="450" as="geometry"/></mxCell><mxCell id="176" value="" style="shape=image;html=1;verticalLabelPosition=bottom;verticalAlign=top;imageAspect=1;aspect=fixed;image=img/clipart/Gear_128x128.png;glass=0;fontFamily=Helvetica;fontSize=13;fontColor=#FFFFFF;labelBackgroundColor=none;" parent="1" vertex="1"><mxGeometry x="-347.9200000000001" y="1989.95" width="289.84" height="340" as="geometry"/></mxCell><mxCell id="177" value="" style="shape=image;html=1;verticalLabelPosition=bottom;verticalAlign=top;imageAspect=1;aspect=fixed;image=img/clipart/Gear_128x128.png;fontFamily=Helvetica;fontSize=13;fontColor=#FFFFFF;labelBackgroundColor=none;" parent="1" vertex="1"><mxGeometry x="283.65" y="2000" width="272.7" height="319.9" as="geometry"/></mxCell><mxCell id="178" value="&lt;div&gt;&lt;br&gt;&lt;/div&gt;" style="whiteSpace=wrap;html=1;aspect=fixed;strokeOpacity=100;fillOpacity=0;fontColor=#FFFFFF;labelBackgroundColor=none;" parent="1" vertex="1"><mxGeometry x="-460" y="1900" width="560" height="560" as="geometry"/></mxCell><mxCell id="179" value="&lt;h1&gt;&lt;b&gt;&lt;font style=&quot;font-size: 17px&quot;&gt;Startseite&lt;/font&gt;&lt;/b&gt;&lt;/h1&gt;" style="text;html=1;align=center;verticalAlign=middle;whiteSpace=wrap;rounded=0;fontColor=#FFFFFF;labelBackgroundColor=none;" parent="1" vertex="1"><mxGeometry x="-250" y="1920" width="94" height="30" as="geometry"/></mxCell><mxCell id="180" style="edgeStyle=orthogonalEdgeStyle;rounded=0;orthogonalLoop=1;jettySize=auto;html=1;exitX=0;exitY=0;exitDx=0;exitDy=0;fontSize=17;strokeWidth=5;entryX=1;entryY=0.25;entryDx=0;entryDy=0;fontColor=#FFFFFF;labelBackgroundColor=none;" parent="1" source="181" target="186" edge="1"><mxGeometry relative="1" as="geometry"><mxPoint x="-690" y="1740" as="targetPoint"/><Array as="points"><mxPoint x="-660" y="1730"/><mxPoint x="-660" y="1688"/></Array></mxGeometry></mxCell><mxCell id="181" value="div : container" style="swimlane;horizontal=0;fontSize=17;fontColor=#FFFFFF;labelBackgroundColor=none;" parent="1" vertex="1"><mxGeometry x="-670" y="1740" width="200" height="270" as="geometry"/></mxCell><mxCell id="182" value="div : id : logo/hintergrund" style="rounded=0;whiteSpace=wrap;html=1;fontSize=17;fontColor=#FFFFFF;labelBackgroundColor=none;" parent="181" vertex="1"><mxGeometry x="40" y="10" width="150" height="40" as="geometry"/></mxCell><mxCell id="183" value="div : id : playerBenennung" style="rounded=0;whiteSpace=wrap;html=1;fontSize=17;fontColor=#FFFFFF;labelBackgroundColor=none;" parent="181" vertex="1"><mxGeometry x="40" y="60" width="140" height="60" as="geometry"/></mxCell><mxCell id="184" value="logo : bild/schrift" style="rounded=0;whiteSpace=wrap;html=1;fontFamily=Helvetica;fontSize=13;fontColor=#FFFFFF;labelBackgroundColor=none;" parent="181" vertex="1"><mxGeometry x="50" y="130" width="120" height="60" as="geometry"/></mxCell><mxCell id="185" value="buttons" style="rounded=0;whiteSpace=wrap;html=1;fontFamily=Helvetica;fontSize=13;fontColor=#FFFFFF;labelBackgroundColor=none;" parent="181" vertex="1"><mxGeometry x="50" y="200" width="120" height="60" as="geometry"/></mxCell><mxCell id="186" value="set interval : &#10;ein-/ aus-/ blenden " style="swimlane;fontStyle=0;childLayout=stackLayout;horizontal=1;startSize=50;horizontalStack=0;resizeParent=1;resizeParentMax=0;resizeLast=0;collapsible=1;marginBottom=0;fontSize=17;fontColor=#FFFFFF;labelBackgroundColor=none;" parent="1" vertex="1"><mxGeometry x="-890" y="1660" width="190" height="110" as="geometry"/></mxCell><mxCell id="187" value="id:logo    " style="text;align=left;verticalAlign=middle;spacingLeft=4;spacingRight=4;overflow=hidden;points=[[0,0.5],[1,0.5]];portConstraint=eastwest;rotatable=0;fontSize=17;fontColor=#FFFFFF;labelBackgroundColor=none;" parent="186" vertex="1"><mxGeometry y="50" width="190" height="30" as="geometry"/></mxCell><mxCell id="188" value="id:playerBenennung" style="text;align=left;verticalAlign=middle;spacingLeft=4;spacingRight=4;overflow=hidden;points=[[0,0.5],[1,0.5]];portConstraint=eastwest;rotatable=0;fontSize=17;fontColor=#FFFFFF;labelBackgroundColor=none;" parent="186" vertex="1"><mxGeometry y="80" width="190" height="30" as="geometry"/></mxCell><mxCell id="189" value="playerBenennung" style="swimlane;fontStyle=0;childLayout=stackLayout;horizontal=1;startSize=30;horizontalStack=0;resizeParent=1;resizeParentMax=0;resizeLast=0;collapsible=1;marginBottom=0;fontSize=17;fontColor=#FFFFFF;labelBackgroundColor=none;" parent="1" vertex="1"><mxGeometry x="-690" y="2130" width="180" height="180" as="geometry"/></mxCell><mxCell id="190" value="bezeichner p1-p5" style="text;align=left;verticalAlign=middle;spacingLeft=4;spacingRight=4;overflow=hidden;points=[[0,0.5],[1,0.5]];portConstraint=eastwest;rotatable=0;fontSize=17;fontColor=#FFFFFF;labelBackgroundColor=none;" parent="189" vertex="1"><mxGeometry y="30" width="180" height="30" as="geometry"/></mxCell><mxCell id="191" value="input felder / namen" style="text;align=left;verticalAlign=middle;spacingLeft=4;spacingRight=4;overflow=hidden;points=[[0,0.5],[1,0.5]];portConstraint=eastwest;rotatable=0;fontSize=17;fontColor=#FFFFFF;labelBackgroundColor=none;" parent="189" vertex="1"><mxGeometry y="60" width="180" height="30" as="geometry"/></mxCell><mxCell id="192" value="tastenbelegung (info)" style="text;align=left;verticalAlign=middle;spacingLeft=4;spacingRight=4;overflow=hidden;points=[[0,0.5],[1,0.5]];portConstraint=eastwest;rotatable=0;fontSize=17;fontColor=#FFFFFF;labelBackgroundColor=none;" parent="189" vertex="1"><mxGeometry y="90" width="180" height="30" as="geometry"/></mxCell><mxCell id="193" value="start button" style="text;align=left;verticalAlign=middle;spacingLeft=4;spacingRight=4;overflow=hidden;points=[[0,0.5],[1,0.5]];portConstraint=eastwest;rotatable=0;fontSize=17;fontColor=#FFFFFF;labelBackgroundColor=none;" parent="189" vertex="1"><mxGeometry y="120" width="180" height="30" as="geometry"/></mxCell><mxCell id="194" value="url button =&gt; statistick" style="text;align=left;verticalAlign=middle;spacingLeft=4;spacingRight=4;overflow=hidden;points=[[0,0.5],[1,0.5]];portConstraint=eastwest;rotatable=0;fontSize=17;fontColor=#FFFFFF;labelBackgroundColor=none;" parent="189" vertex="1"><mxGeometry y="150" width="180" height="30" as="geometry"/></mxCell><mxCell id="195" style="edgeStyle=orthogonalEdgeStyle;rounded=0;orthogonalLoop=1;jettySize=auto;html=1;exitX=0;exitY=0.5;exitDx=0;exitDy=0;fontSize=17;strokeWidth=5;fontColor=#FFFFFF;labelBackgroundColor=none;" parent="1" source="183" target="209" edge="1"><mxGeometry relative="1" as="geometry"><mxPoint x="-729.9999999999998" y="1850" as="targetPoint"/><Array as="points"><mxPoint x="-630" y="1950"/><mxPoint x="-630" y="1950"/></Array></mxGeometry></mxCell><mxCell id="196" value="bild" style="rounded=0;whiteSpace=wrap;html=1;fontSize=17;fontColor=#FFFFFF;labelBackgroundColor=none;" parent="1" vertex="1"><mxGeometry x="-630" y="1660" width="120" height="40" as="geometry"/></mxCell><mxCell id="197" value="" style="edgeStyle=orthogonalEdgeStyle;rounded=0;orthogonalLoop=1;jettySize=auto;html=1;exitX=0.5;exitY=0;exitDx=0;exitDy=0;fontSize=17;endArrow=none;strokeWidth=5;fontColor=#FFFFFF;labelBackgroundColor=none;" parent="1" source="182" target="196" edge="1"><mxGeometry relative="1" as="geometry"><mxPoint x="-570" y="1710" as="targetPoint"/><mxPoint x="-570" y="1760" as="sourcePoint"/></mxGeometry></mxCell><mxCell id="198" style="edgeStyle=orthogonalEdgeStyle;rounded=0;orthogonalLoop=1;jettySize=auto;html=1;exitX=0.5;exitY=1;exitDx=0;exitDy=0;fontSize=17;fontColor=#FFFFFF;labelBackgroundColor=none;" parent="1" source="196" target="196" edge="1"><mxGeometry relative="1" as="geometry"/></mxCell><mxCell id="199" style="edgeStyle=orthogonalEdgeStyle;rounded=0;orthogonalLoop=1;jettySize=auto;html=1;entryX=0.303;entryY=-0.008;entryDx=0;entryDy=0;entryPerimeter=0;fontFamily=Helvetica;fontSize=29;strokeWidth=5;fontColor=#FFFFFF;labelBackgroundColor=none;" parent="1" source="200" edge="1"><mxGeometry relative="1" as="geometry"><mxPoint x="-290.3199999999997" y="2495.52" as="targetPoint"/></mxGeometry></mxCell><UserObject label="start" linkTarget="_blank" id="200"><mxCell style="labelPosition=center;verticalLabelPosition=middle;align=center;html=1;shape=mxgraph.basic.shaded_button;dx=10;fontSize=17;fontColor=#FFFFFF;labelBackgroundColor=none;" parent="1" vertex="1"><mxGeometry x="-340" y="2250" width="100" height="60" as="geometry"/></mxCell></UserObject><mxCell id="201" style="edgeStyle=orthogonalEdgeStyle;rounded=0;orthogonalLoop=1;jettySize=auto;html=1;fontFamily=Helvetica;fontSize=29;strokeWidth=5;fontColor=#FFFFFF;labelBackgroundColor=none;" parent="1" source="202" edge="1"><mxGeometry relative="1" as="geometry"><mxPoint x="160" y="2280" as="targetPoint"/></mxGeometry></mxCell><mxCell id="202" value="statistik" style="labelPosition=center;verticalLabelPosition=middle;align=center;html=1;shape=mxgraph.basic.shaded_button;dx=10;fontSize=17;fontColor=#FFFFFF;labelBackgroundColor=none;" parent="1" vertex="1"><mxGeometry x="-130" y="2250" width="100" height="60" as="geometry"/></mxCell><mxCell id="203" value="&lt;table cellpadding=&quot;4&quot; cellspacing=&quot;0&quot; border=&quot;1&quot; style=&quot;font-size: 1em ; width: 100% ; height: 100%&quot;&gt;&lt;tbody&gt;&lt;tr&gt;&lt;th&gt;player 1&lt;/th&gt;&lt;th&gt;player 2&lt;/th&gt;&lt;/tr&gt;&lt;tr&gt;&lt;td&gt;name&lt;/td&gt;&lt;td&gt;name&lt;br&gt;&lt;/td&gt;&lt;/tr&gt;&lt;tr&gt;&lt;td&gt;tastenbelegung&lt;/td&gt;&lt;td&gt;tastenbelegung&lt;br&gt;&lt;/td&gt;&lt;/tr&gt;&lt;/tbody&gt;&lt;/table&gt; " style="verticalAlign=top;align=left;overflow=fill;fontSize=12;fontFamily=Helvetica;html=1;fillOpacity=0;labelBackgroundColor=#333333;" parent="1" vertex="1"><mxGeometry x="-445" y="2110" width="195" height="80" as="geometry"/></mxCell><mxCell id="204" value="&lt;table cellpadding=&quot;4&quot; cellspacing=&quot;0&quot; border=&quot;1&quot; style=&quot;font-size: 1em ; width: 100% ; height: 100%&quot;&gt;&lt;tbody&gt;&lt;tr&gt;&lt;th&gt;player 3&lt;/th&gt;&lt;th&gt;player&amp;nbsp;&amp;nbsp;4&lt;/th&gt;&lt;/tr&gt;&lt;tr&gt;&lt;td&gt;name&lt;br&gt;&lt;/td&gt;&lt;td&gt;name&lt;br&gt;&lt;/td&gt;&lt;/tr&gt;&lt;tr&gt;&lt;td&gt;tastenbelegung&lt;/td&gt;&lt;td&gt;tastenbelegung&lt;br&gt;&lt;/td&gt;&lt;/tr&gt;&lt;/tbody&gt;&lt;/table&gt; " style="verticalAlign=top;align=left;overflow=fill;fontSize=12;fontFamily=Helvetica;html=1;fillOpacity=0;labelBackgroundColor=#333333;" parent="1" vertex="1"><mxGeometry x="-255" y="2110" width="185" height="80" as="geometry"/></mxCell><mxCell id="205" value="&lt;table cellpadding=&quot;4&quot; cellspacing=&quot;0&quot; border=&quot;1&quot; style=&quot;font-size: 1em ; width: 100% ; height: 100%&quot;&gt;&lt;tbody&gt;&lt;tr&gt;&lt;th&gt;player&amp;nbsp;&amp;nbsp;5&lt;/th&gt;&lt;th&gt;&lt;br&gt;&lt;/th&gt;&lt;/tr&gt;&lt;tr&gt;&lt;td&gt;name&lt;br&gt;&lt;/td&gt;&lt;td&gt;&lt;br&gt;&lt;/td&gt;&lt;/tr&gt;&lt;tr&gt;&lt;td&gt;tastenbelegung&lt;br&gt;&lt;/td&gt;&lt;td&gt;&lt;/td&gt;&lt;/tr&gt;&lt;/tbody&gt;&lt;/table&gt; " style="verticalAlign=top;align=left;overflow=fill;fontSize=12;fontFamily=Helvetica;html=1;fillOpacity=0;labelBackgroundColor=#333333;" parent="1" vertex="1"><mxGeometry x="-70" y="2110" width="90" height="80" as="geometry"/></mxCell><mxCell id="206" value="Label" style="html=1;whiteSpace=wrap;container=1;recursiveResize=0;collapsible=0;fontFamily=Helvetica;fontSize=12;fontColor=#FFFFFF;labelBackgroundColor=none;" parent="1" vertex="1"><mxGeometry x="-265" y="1990" width="160" height="70" as="geometry"/></mxCell><mxCell id="207" value="" style="triangle;html=1;whiteSpace=wrap;fontFamily=Helvetica;fontSize=12;fontColor=#FFFFFF;labelBackgroundColor=none;" parent="206" vertex="1"><mxGeometry x="20" y="20" width="20" height="30" as="geometry"/></mxCell><mxCell id="208" value="" style="edgeStyle=orthogonalEdgeStyle;rounded=0;orthogonalLoop=1;jettySize=auto;html=1;fontFamily=Helvetica;fontSize=29;strokeWidth=5;entryX=0.343;entryY=0.024;entryDx=0;entryDy=0;entryPerimeter=0;fontColor=#FFFFFF;labelBackgroundColor=none;" parent="1" source="209" target="189" edge="1"><mxGeometry relative="1" as="geometry"><mxPoint x="-650" y="2130" as="targetPoint"/></mxGeometry></mxCell><mxCell id="209" value="tabelle" style="rounded=0;whiteSpace=wrap;html=1;fontFamily=Helvetica;fontSize=12;fontColor=#FFFFFF;labelBackgroundColor=none;" parent="1" vertex="1"><mxGeometry x="-670" y="2030" width="120" height="60" as="geometry"/></mxCell><mxCell id="210" value="&lt;h1 style=&quot;font-size: 29px&quot;&gt;&lt;font style=&quot;font-size: 29px&quot;&gt;Startseite&lt;/font&gt;&lt;/h1&gt;&lt;h3 style=&quot;font-size: 29px&quot;&gt;&lt;font style=&quot;font-size: 29px&quot;&gt;Ablauf&lt;/font&gt;&lt;/h3&gt;&lt;ol style=&quot;font-size: 29px&quot;&gt;&lt;li&gt;&lt;font style=&quot;font-size: 29px&quot;&gt;&amp;nbsp;hintergrung einblenden,&lt;/font&gt;&lt;/li&gt;&lt;li&gt;&lt;font style=&quot;font-size: 29px&quot;&gt;logo einblenden,&lt;/font&gt;&lt;/li&gt;&lt;li&gt;&lt;font style=&quot;font-size: 29px&quot;&gt;tabelle und button einblenden.&lt;/font&gt;&lt;/li&gt;&lt;/ol&gt;" style="text;html=1;align=center;verticalAlign=middle;resizable=0;points=[];autosize=1;fontSize=12;fontFamily=Helvetica;fontColor=#FFFFFF;labelBackgroundColor=none;" parent="1" vertex="1"><mxGeometry x="-390" y="1660" width="440" height="180" as="geometry"/></mxCell><mxCell id="211" value="&lt;div&gt;&lt;br&gt;&lt;/div&gt;" style="whiteSpace=wrap;html=1;aspect=fixed;fillOpacity=0;fontColor=#FFFFFF;labelBackgroundColor=none;" parent="1" vertex="1"><mxGeometry x="-470" y="2780" width="560" height="560" as="geometry"/></mxCell><mxCell id="212" value="&lt;div&gt;&lt;br&gt;&lt;/div&gt;" style="whiteSpace=wrap;html=1;aspect=fixed;glass=0;fillOpacity=0;strokeOpacity=100;fontColor=#FFFFFF;labelBackgroundColor=none;" parent="1" vertex="1"><mxGeometry x="150" y="1900" width="560" height="560" as="geometry"/></mxCell><mxCell id="213" value="" style="shape=ext;double=1;rounded=1;whiteSpace=wrap;html=1;fontFamily=Helvetica;fontSize=29;fontColor=#ffffff;labelBackgroundColor=none;fillColor=#60a917;strokeColor=#2D7600;" parent="1" vertex="1"><mxGeometry x="-465" y="2882.5" width="360" height="360" as="geometry"/></mxCell><mxCell id="214" value="div : container" style="swimlane;horizontal=0;fontSize=17;fontColor=#FFFFFF;labelBackgroundColor=none;" parent="1" vertex="1"><mxGeometry x="-800" y="2660" width="290" height="420" as="geometry"/></mxCell><mxCell id="215" value="canvas : id : spielFeld" style="rounded=0;whiteSpace=wrap;html=1;fontSize=17;fontColor=#FFFFFF;labelBackgroundColor=none;" parent="214" vertex="1"><mxGeometry x="37" y="280" width="140" height="60" as="geometry"/></mxCell><mxCell id="216" value="&lt;font style=&quot;font-size: 21px&quot;&gt;div : id rangListe&lt;/font&gt;" style="swimlane;fontFamily=Helvetica;fontSize=29;html=1;fontColor=#FFFFFF;labelBackgroundColor=none;" parent="214" vertex="1"><mxGeometry x="37" y="10" width="237.5" height="170" as="geometry"/></mxCell><mxCell id="217" value="div : id : player 1 score" style="rounded=0;whiteSpace=wrap;html=1;fontSize=17;fontColor=#FFFFFF;labelBackgroundColor=none;" parent="216" vertex="1"><mxGeometry x="5" y="30" width="215" height="50" as="geometry"/></mxCell><mxCell id="218" value="div : id : player 2 score" style="rounded=0;whiteSpace=wrap;html=1;fontSize=17;fontColor=#FFFFFF;labelBackgroundColor=none;" parent="214" vertex="1"><mxGeometry x="48.25" y="110" width="215" height="50" as="geometry"/></mxCell><mxCell id="219" value="&lt;font style=&quot;font-size: 13px&quot;&gt;div hightscore&lt;/font&gt;" style="swimlane;fontFamily=Helvetica;fontSize=28;html=1;startSize=23;fontColor=#FFFFFF;labelBackgroundColor=none;" parent="214" vertex="1"><mxGeometry x="37" y="190" width="243" height="80" as="geometry"/></mxCell><mxCell id="220" value="&amp;lt;h4&amp;gt; : id : topscore : style : red" style="rounded=0;whiteSpace=wrap;html=1;fontFamily=Helvetica;fontSize=13;fontColor=#FFFFFF;labelBackgroundColor=none;" parent="219" vertex="1"><mxGeometry x="11.25" y="30" width="208.75" height="30" as="geometry"/></mxCell><mxCell id="221" value="buttons" style="rounded=0;whiteSpace=wrap;html=1;fontFamily=Helvetica;fontSize=13;fontColor=#FFFFFF;labelBackgroundColor=none;" parent="214" vertex="1"><mxGeometry x="110" y="349" width="150" height="60" as="geometry"/></mxCell><mxCell id="222" style="edgeStyle=orthogonalEdgeStyle;rounded=0;orthogonalLoop=1;jettySize=auto;html=1;exitX=0.5;exitY=1;exitDx=0;exitDy=0;fontSize=17;fontColor=#FFFFFF;labelBackgroundColor=none;" parent="1" edge="1"><mxGeometry relative="1" as="geometry"><mxPoint x="-560" y="1710" as="sourcePoint"/><mxPoint x="-560" y="1710" as="targetPoint"/></mxGeometry></mxCell><mxCell id="223" value="rangListe im spiel ablauf" style="swimlane;fontFamily=Helvetica;fontSize=10;html=1;fontColor=#FFFFFF;labelBackgroundColor=none;" parent="1" vertex="1"><mxGeometry x="-100" y="2920" width="170" height="340" as="geometry"/></mxCell><mxCell id="224" value="&lt;font style=&quot;font-size: 13px&quot;&gt;div button&lt;/font&gt;" style="swimlane;fontFamily=Helvetica;fontSize=28;html=1;fontColor=#FFFFFF;labelBackgroundColor=none;" parent="223" vertex="1"><mxGeometry y="200" width="170" height="140" as="geometry"/></mxCell><mxCell id="225" value="zur startseite" style="labelPosition=center;verticalLabelPosition=middle;align=center;html=1;shape=mxgraph.basic.shaded_button;dx=10;fontSize=17;fontColor=#FFFFFF;labelBackgroundColor=none;" parent="224" vertex="1"><mxGeometry x="20" y="90" width="120" height="35" as="geometry"/></mxCell><mxCell id="226" value="statistik" style="labelPosition=center;verticalLabelPosition=middle;align=center;html=1;shape=mxgraph.basic.shaded_button;dx=10;fontSize=17;fontColor=#FFFFFF;labelBackgroundColor=none;" parent="224" vertex="1"><mxGeometry x="20" y="40" width="120" height="35" as="geometry"/></mxCell><mxCell id="227" value="&lt;font style=&quot;font-size: 10px&quot;&gt;playerName:punkte&lt;/font&gt;" style="rounded=0;whiteSpace=wrap;html=1;fontFamily=Helvetica;fontSize=21;fontColor=#FFFFFF;labelBackgroundColor=none;" parent="223" vertex="1"><mxGeometry x="30.5" y="35" width="90" height="30" as="geometry"/></mxCell><mxCell id="228" value="&lt;font style=&quot;font-size: 10px&quot;&gt;playerName:punkte&lt;/font&gt;" style="rounded=0;whiteSpace=wrap;html=1;fontFamily=Helvetica;fontSize=21;fontColor=#FFFFFF;labelBackgroundColor=none;" parent="223" vertex="1"><mxGeometry x="30.5" y="65" width="90" height="30" as="geometry"/></mxCell><mxCell id="229" value="&lt;font style=&quot;font-size: 10px&quot;&gt;playerName:punkte&lt;/font&gt;" style="rounded=0;whiteSpace=wrap;html=1;fontFamily=Helvetica;fontSize=21;fontColor=#FFFFFF;labelBackgroundColor=none;" parent="223" vertex="1"><mxGeometry x="30.5" y="95" width="90" height="30" as="geometry"/></mxCell><mxCell id="230" value="&lt;font style=&quot;font-size: 10px&quot;&gt;playerName:punkte&lt;/font&gt;" style="rounded=0;whiteSpace=wrap;html=1;fontFamily=Helvetica;fontSize=21;fontColor=#FFFFFF;labelBackgroundColor=none;" parent="223" vertex="1"><mxGeometry x="30.5" y="125" width="90" height="30" as="geometry"/></mxCell><mxCell id="231" value="&lt;font style=&quot;font-size: 10px&quot;&gt;playerName:punkte&lt;/font&gt;" style="rounded=0;whiteSpace=wrap;html=1;fontFamily=Helvetica;fontSize=21;fontColor=#FFFFFF;labelBackgroundColor=none;" parent="223" vertex="1"><mxGeometry x="30.5" y="155" width="90" height="30" as="geometry"/></mxCell><mxCell id="232" value="&lt;font style=&quot;font-size: 13px&quot;&gt;div hightscore&lt;/font&gt;" style="swimlane;fontFamily=Helvetica;fontSize=28;html=1;startSize=23;fontColor=#FFFFFF;labelBackgroundColor=none;" parent="223" vertex="1"><mxGeometry x="-9.5" y="-65" width="170" height="65" as="geometry"/></mxCell><mxCell id="233" value="top score&amp;nbsp;" style="rounded=0;whiteSpace=wrap;html=1;fontFamily=Helvetica;fontSize=13;fontColor=#FFFFFF;labelBackgroundColor=none;" parent="232" vertex="1"><mxGeometry x="20" y="30" width="120" height="30" as="geometry"/></mxCell><mxCell id="234" value="&lt;font style=&quot;font-size: 10px&quot;&gt;playerName:punkte&lt;/font&gt;" style="rounded=0;whiteSpace=wrap;html=1;fontFamily=Helvetica;fontSize=21;fontColor=#FFFFFF;labelBackgroundColor=none;" parent="223" vertex="1"><mxGeometry x="26" y="35" width="90" height="30" as="geometry"/></mxCell><mxCell id="235" value="&lt;font style=&quot;font-size: 10px&quot;&gt;playerName:punkte&lt;/font&gt;" style="rounded=0;whiteSpace=wrap;html=1;fontFamily=Helvetica;fontSize=21;fontColor=#FFFFFF;labelBackgroundColor=none;" parent="223" vertex="1"><mxGeometry x="26" y="155" width="90" height="30" as="geometry"/></mxCell><mxCell id="236" value="&lt;font style=&quot;font-size: 13px&quot;&gt;div hightscore&lt;/font&gt;" style="swimlane;fontFamily=Helvetica;fontSize=28;html=1;startSize=23;fontColor=#FFFFFF;labelBackgroundColor=none;" parent="223" vertex="1"><mxGeometry x="-9.5" y="-65" width="170" height="65" as="geometry"/></mxCell><mxCell id="237" value="top score&amp;nbsp;" style="rounded=0;whiteSpace=wrap;html=1;fontFamily=Helvetica;fontSize=13;fontColor=#FFFFFF;labelBackgroundColor=none;" parent="236" vertex="1"><mxGeometry x="20" y="30" width="120" height="30" as="geometry"/></mxCell><mxCell id="238" value="&lt;font style=&quot;font-size: 10px&quot;&gt;playerName:punkte&lt;/font&gt;" style="rounded=0;whiteSpace=wrap;html=1;fontFamily=Helvetica;fontSize=21;fontColor=#FFFFFF;labelBackgroundColor=none;" parent="223" vertex="1"><mxGeometry x="26" y="35" width="90" height="30" as="geometry"/></mxCell><mxCell id="239" value="&lt;font style=&quot;font-size: 10px&quot;&gt;playerName:punkte&lt;/font&gt;" style="rounded=0;whiteSpace=wrap;html=1;fontFamily=Helvetica;fontSize=21;fontColor=#FFFFFF;labelBackgroundColor=none;" parent="223" vertex="1"><mxGeometry x="26" y="155" width="90" height="30" as="geometry"/></mxCell><mxCell id="240" value="&lt;h1&gt;SpielSeite&lt;/h1&gt;" style="text;html=1;align=center;verticalAlign=middle;whiteSpace=wrap;rounded=0;fontFamily=Helvetica;fontSize=10;fontColor=#FFFFFF;labelBackgroundColor=none;" parent="1" vertex="1"><mxGeometry x="-250" y="2790" width="60" height="30" as="geometry"/></mxCell><mxCell id="241" value="&lt;h1&gt;&lt;font style=&quot;font-size: 29px&quot;&gt;Spielseite&lt;/font&gt;&lt;/h1&gt;&lt;div&gt;&lt;ol&gt;&lt;li style=&quot;font-size: 29px&quot;&gt;&lt;font style=&quot;font-size: 29px&quot;&gt;spieler werden an ihren startpunkten plaziert und der erste Happen(punkt)&lt;/font&gt;&lt;/li&gt;&lt;li style=&quot;font-size: 29px&quot;&gt;&lt;span&gt;spiel beginnt mit tastendruck&lt;/span&gt;&lt;br&gt;&lt;/li&gt;&lt;li style=&quot;font-size: 29px&quot;&gt;&lt;span&gt;rangliste : ordnet sich selbst (absteigend)von oben nach unten&lt;/span&gt;&lt;/li&gt;&lt;/ol&gt;&lt;/div&gt;" style="text;html=1;align=center;verticalAlign=middle;whiteSpace=wrap;rounded=0;fontFamily=Helvetica;fontSize=10;fontColor=#FFFFFF;labelBackgroundColor=none;" parent="1" vertex="1"><mxGeometry x="-505.5" y="2420" width="605" height="350" as="geometry"/></mxCell><mxCell id="242" value="" style="verticalLabelPosition=bottom;verticalAlign=top;html=1;shape=mxgraph.basic.flash;fontFamily=Helvetica;fontSize=29;fontColor=#FFFFFF;labelBackgroundColor=none;" parent="1" vertex="1"><mxGeometry x="-430" y="2910" width="10" height="80" as="geometry"/></mxCell><mxCell id="243" value="" style="verticalLabelPosition=bottom;verticalAlign=top;html=1;shape=mxgraph.basic.flash;fontFamily=Helvetica;fontSize=29;fontColor=#FFFFFF;labelBackgroundColor=none;" parent="1" vertex="1"><mxGeometry x="-167.5" y="2920" width="10" height="80" as="geometry"/></mxCell><mxCell id="244" value="" style="verticalLabelPosition=bottom;verticalAlign=top;html=1;shape=mxgraph.basic.smiley;fontFamily=Helvetica;fontSize=29;fontColor=#FFFFFF;labelBackgroundColor=none;" parent="1" vertex="1"><mxGeometry x="-179" y="2915" width="33" height="30" as="geometry"/></mxCell><mxCell id="245" value="" style="verticalLabelPosition=bottom;verticalAlign=top;html=1;shape=mxgraph.basic.flash;fontFamily=Helvetica;fontSize=29;fontColor=#FFFFFF;labelBackgroundColor=none;" parent="1" vertex="1"><mxGeometry x="-430" y="3135" width="10" height="80" as="geometry"/></mxCell><mxCell id="246" value="" style="verticalLabelPosition=bottom;verticalAlign=top;html=1;shape=mxgraph.basic.smiley;fontFamily=Helvetica;fontSize=29;fontColor=#FFFFFF;labelBackgroundColor=none;" parent="1" vertex="1"><mxGeometry x="-441.5" y="3130" width="33" height="30" as="geometry"/></mxCell><mxCell id="247" value="" style="verticalLabelPosition=bottom;verticalAlign=top;html=1;shape=mxgraph.basic.flash;fontFamily=Helvetica;fontSize=29;fontColor=#FFFFFF;labelBackgroundColor=none;" parent="1" vertex="1"><mxGeometry x="-167.5" y="3125" width="10" height="80" as="geometry"/></mxCell><mxCell id="248" value="" style="verticalLabelPosition=bottom;verticalAlign=top;html=1;shape=mxgraph.basic.smiley;fontFamily=Helvetica;fontSize=29;fontColor=#FFFFFF;labelBackgroundColor=none;" parent="1" vertex="1"><mxGeometry x="-179" y="3120" width="33" height="30" as="geometry"/></mxCell><mxCell id="249" value="" style="verticalLabelPosition=bottom;verticalAlign=top;html=1;shape=mxgraph.basic.flash;fontFamily=Helvetica;fontSize=29;fontColor=#FFFFFF;labelBackgroundColor=none;" parent="1" vertex="1"><mxGeometry x="-295" y="3022.5" width="10" height="80" as="geometry"/></mxCell><mxCell id="250" value="" style="verticalLabelPosition=bottom;verticalAlign=top;html=1;shape=mxgraph.basic.smiley;fontFamily=Helvetica;fontSize=29;fontColor=#FFFFFF;labelBackgroundColor=none;" parent="1" vertex="1"><mxGeometry x="-306.5" y="3017.5" width="33" height="30" as="geometry"/></mxCell><mxCell id="251" value="" style="verticalLabelPosition=bottom;verticalAlign=top;html=1;shape=mxgraph.basic.sun;fontFamily=Helvetica;fontSize=29;fontColor=#FFFFFF;labelBackgroundColor=none;" parent="1" vertex="1"><mxGeometry x="-220" y="3049" width="20" height="20" as="geometry"/></mxCell><mxCell id="252" value="spielschleife " style="swimlane;fontStyle=0;childLayout=stackLayout;horizontal=1;startSize=30;horizontalStack=0;resizeParent=1;resizeParentMax=0;resizeLast=0;collapsible=1;marginBottom=0;fontSize=17;fontColor=#FFFFFF;labelBackgroundColor=none;" parent="1" vertex="1"><mxGeometry x="-1160" y="3085" width="310" height="120" as="geometry"/></mxCell><mxCell id="253" value=" setInterval" style="text;align=left;verticalAlign=middle;spacingLeft=4;spacingRight=4;overflow=hidden;points=[[0,0.5],[1,0.5]];portConstraint=eastwest;rotatable=0;fontSize=17;fontColor=#FFFFFF;labelBackgroundColor=none;" parent="252" vertex="1"><mxGeometry y="30" width="310" height="30" as="geometry"/></mxCell><mxCell id="254" value="pro player : Array(wachsendesArray)" style="text;align=left;verticalAlign=middle;spacingLeft=4;spacingRight=4;overflow=hidden;points=[[0,0.5],[1,0.5]];portConstraint=eastwest;rotatable=0;fontSize=17;fontColor=#FFFFFF;labelBackgroundColor=none;" parent="252" vertex="1"><mxGeometry y="60" width="310" height="30" as="geometry"/></mxCell><mxCell id="255" value="random =&gt; Happen " style="text;align=left;verticalAlign=middle;spacingLeft=4;spacingRight=4;overflow=hidden;points=[[0,0.5],[1,0.5]];portConstraint=eastwest;rotatable=0;fontSize=17;fontColor=#FFFFFF;labelBackgroundColor=none;" parent="252" vertex="1"><mxGeometry y="90" width="310" height="30" as="geometry"/></mxCell><mxCell id="256" style="edgeStyle=orthogonalEdgeStyle;rounded=0;orthogonalLoop=1;jettySize=auto;html=1;exitX=0;exitY=1;exitDx=0;exitDy=0;fontFamily=Helvetica;fontSize=29;strokeWidth=5;fontColor=#FFFFFF;labelBackgroundColor=none;" parent="1" source="215" target="252" edge="1"><mxGeometry relative="1" as="geometry"/></mxCell><mxCell id="257" style="edgeStyle=orthogonalEdgeStyle;rounded=0;orthogonalLoop=1;jettySize=auto;html=1;fontFamily=Helvetica;fontSize=29;strokeWidth=5;fontColor=#FFFFFF;labelBackgroundColor=none;" parent="1" source="216" edge="1"><mxGeometry relative="1" as="geometry"><mxPoint x="-870" y="2754.9999999999995" as="targetPoint"/><Array as="points"><mxPoint x="-870" y="2730"/></Array></mxGeometry></mxCell><mxCell id="258" value="rangListe" style="swimlane;fontStyle=0;childLayout=stackLayout;horizontal=1;startSize=30;horizontalStack=0;resizeParent=1;resizeParentMax=0;resizeLast=0;collapsible=1;marginBottom=0;fontSize=17;fontColor=#FFFFFF;labelBackgroundColor=none;" parent="1" vertex="1"><mxGeometry x="-1220" y="2750" width="380" height="60" as="geometry"/></mxCell><mxCell id="259" value="playerDivScore : nach punktestand sortieren   " style="text;align=left;verticalAlign=middle;spacingLeft=4;spacingRight=4;overflow=hidden;points=[[0,0.5],[1,0.5]];portConstraint=eastwest;rotatable=0;fontSize=17;fontColor=#FFFFFF;labelBackgroundColor=none;" parent="258" vertex="1"><mxGeometry y="30" width="380" height="30" as="geometry"/></mxCell><mxCell id="260" value="playerDivScore" style="swimlane;fontStyle=0;childLayout=stackLayout;horizontal=1;startSize=30;horizontalStack=0;resizeParent=1;resizeParentMax=0;resizeLast=0;collapsible=1;marginBottom=0;fontSize=17;fontColor=#FFFFFF;labelBackgroundColor=none;" parent="1" vertex="1"><mxGeometry x="-1210" y="2855" width="310" height="90" as="geometry"/></mxCell><mxCell id="261" value="inputFeld : id : playerName" style="text;align=left;verticalAlign=middle;spacingLeft=4;spacingRight=4;overflow=hidden;points=[[0,0.5],[1,0.5]];portConstraint=eastwest;rotatable=0;fontSize=17;fontColor=#FFFFFF;labelBackgroundColor=none;" parent="260" vertex="1"><mxGeometry y="30" width="310" height="30" as="geometry"/></mxCell><mxCell id="262" value="inputFeld : id : score" style="text;align=left;verticalAlign=middle;spacingLeft=4;spacingRight=4;overflow=hidden;points=[[0,0.5],[1,0.5]];portConstraint=eastwest;rotatable=0;fontSize=17;fontColor=#FFFFFF;labelBackgroundColor=none;" parent="260" vertex="1"><mxGeometry y="60" width="310" height="30" as="geometry"/></mxCell><mxCell id="263" style="edgeStyle=orthogonalEdgeStyle;rounded=0;orthogonalLoop=1;jettySize=auto;html=1;entryX=0.086;entryY=-0.06;entryDx=0;entryDy=0;entryPerimeter=0;fontFamily=Helvetica;fontSize=29;strokeWidth=5;fontColor=#FFFFFF;labelBackgroundColor=none;" parent="1" source="259" target="260" edge="1"><mxGeometry relative="1" as="geometry"/></mxCell><mxCell id="264" value="&lt;font style=&quot;font-size: 13px&quot;&gt;div hightscore&lt;/font&gt;" style="swimlane;fontFamily=Helvetica;fontSize=28;html=1;startSize=23;fontColor=#FFFFFF;labelBackgroundColor=none;" parent="1" vertex="1"><mxGeometry x="-100" y="2855" width="170" height="65" as="geometry"/></mxCell><mxCell id="265" value="top score&amp;nbsp;" style="rounded=0;whiteSpace=wrap;html=1;fontFamily=Helvetica;fontSize=13;fontColor=#FFFFFF;labelBackgroundColor=none;" parent="264" vertex="1"><mxGeometry x="20" y="30" width="120" height="30" as="geometry"/></mxCell><mxCell id="266" value="&lt;font style=&quot;font-size: 13px&quot;&gt;div hightscore&lt;/font&gt;" style="swimlane;fontFamily=Helvetica;fontSize=28;html=1;startSize=23;fontColor=#FFFFFF;labelBackgroundColor=none;" parent="264" vertex="1"><mxGeometry x="-5" width="170" height="65" as="geometry"/></mxCell><mxCell id="267" value="top score&amp;nbsp;" style="rounded=0;whiteSpace=wrap;html=1;fontFamily=Helvetica;fontSize=13;fontColor=#FFFFFF;labelBackgroundColor=none;" parent="266" vertex="1"><mxGeometry x="20" y="30" width="120" height="30" as="geometry"/></mxCell><mxCell id="268" style="edgeStyle=orthogonalEdgeStyle;rounded=0;orthogonalLoop=1;jettySize=auto;html=1;fontFamily=Helvetica;fontSize=13;strokeWidth=5;fontColor=#FFFFFF;labelBackgroundColor=none;" parent="1" source="220" edge="1"><mxGeometry relative="1" as="geometry"><mxPoint x="-509.95238095238074" y="3100" as="targetPoint"/></mxGeometry></mxCell><mxCell id="269" value="topScore" style="swimlane;fontStyle=0;childLayout=stackLayout;horizontal=1;startSize=30;horizontalStack=0;resizeParent=1;resizeParentMax=0;resizeLast=0;collapsible=1;marginBottom=0;fontSize=17;fontColor=#FFFFFF;labelBackgroundColor=none;" parent="1" vertex="1"><mxGeometry x="-800" y="3100" width="310" height="60" as="geometry"/></mxCell><mxCell id="270" value="server abfrage höchstpunktestand" style="text;align=left;verticalAlign=middle;spacingLeft=4;spacingRight=4;overflow=hidden;points=[[0,0.5],[1,0.5]];portConstraint=eastwest;rotatable=0;fontSize=17;fontColor=#FFFFFF;labelBackgroundColor=none;" parent="269" vertex="1"><mxGeometry y="30" width="310" height="30" as="geometry"/></mxCell><mxCell id="271" style="edgeStyle=orthogonalEdgeStyle;rounded=0;orthogonalLoop=1;jettySize=auto;html=1;fontFamily=Helvetica;fontSize=13;strokeWidth=5;entryX=0;entryY=0;entryDx=0;entryDy=0;fontColor=#FFFFFF;labelBackgroundColor=none;" parent="1" source="254" target="275" edge="1"><mxGeometry relative="1" as="geometry"><mxPoint x="-1230" y="3160" as="targetPoint"/><Array as="points"><mxPoint x="-1190" y="3160"/><mxPoint x="-1190" y="3210"/><mxPoint x="-1200" y="3210"/></Array></mxGeometry></mxCell><mxCell id="272" style="edgeStyle=orthogonalEdgeStyle;rounded=0;orthogonalLoop=1;jettySize=auto;html=1;fontFamily=Helvetica;fontSize=13;strokeWidth=5;fontColor=#FFFFFF;labelBackgroundColor=none;" parent="1" source="255" edge="1"><mxGeometry relative="1" as="geometry"><mxPoint x="-780" y="3190" as="targetPoint"/></mxGeometry></mxCell><mxCell id="273" value="random Happen" style="swimlane;fontStyle=0;childLayout=stackLayout;horizontal=1;startSize=30;horizontalStack=0;resizeParent=1;resizeParentMax=0;resizeLast=0;collapsible=1;marginBottom=0;fontSize=17;fontColor=#FFFFFF;labelBackgroundColor=none;" parent="1" vertex="1"><mxGeometry x="-790" y="3180" width="310" height="60" as="geometry"/></mxCell><mxCell id="274" value="happen auf dem feld plazieren" style="text;align=left;verticalAlign=middle;spacingLeft=4;spacingRight=4;overflow=hidden;points=[[0,0.5],[1,0.5]];portConstraint=eastwest;rotatable=0;fontSize=17;fontColor=#FFFFFF;labelBackgroundColor=none;" parent="273" vertex="1"><mxGeometry y="30" width="310" height="30" as="geometry"/></mxCell><mxCell id="275" value="wachsendesArray(snake)" style="swimlane;fontStyle=0;childLayout=stackLayout;horizontal=1;startSize=30;horizontalStack=0;resizeParent=1;resizeParentMax=0;resizeLast=0;collapsible=1;marginBottom=0;fontSize=17;fontColor=#FFFFFF;labelBackgroundColor=none;" parent="1" vertex="1"><mxGeometry x="-1200" y="3240" width="310" height="120" as="geometry"/></mxCell><mxCell id="276" value="bewegung (links,rechts,hoch,runter)" style="text;align=left;verticalAlign=middle;spacingLeft=4;spacingRight=4;overflow=hidden;points=[[0,0.5],[1,0.5]];portConstraint=eastwest;rotatable=0;fontSize=17;fontColor=#FFFFFF;labelBackgroundColor=none;" parent="275" vertex="1"><mxGeometry y="30" width="310" height="30" as="geometry"/></mxCell><mxCell id="277" value="wachstum" style="text;align=left;verticalAlign=middle;spacingLeft=4;spacingRight=4;overflow=hidden;points=[[0,0.5],[1,0.5]];portConstraint=eastwest;rotatable=0;fontSize=17;fontColor=#FFFFFF;labelBackgroundColor=none;" parent="275" vertex="1"><mxGeometry y="60" width="310" height="30" as="geometry"/></mxCell><mxCell id="278" value="sterben / spawnen" style="text;align=left;verticalAlign=middle;spacingLeft=4;spacingRight=4;overflow=hidden;points=[[0,0.5],[1,0.5]];portConstraint=eastwest;rotatable=0;fontSize=17;fontColor=#FFFFFF;labelBackgroundColor=none;" parent="275" vertex="1"><mxGeometry y="90" width="310" height="30" as="geometry"/></mxCell><mxCell id="279" style="edgeStyle=orthogonalEdgeStyle;rounded=0;orthogonalLoop=1;jettySize=auto;html=1;entryX=1;entryY=0.75;entryDx=0;entryDy=0;fontFamily=Helvetica;fontSize=13;strokeWidth=5;fontColor=#FFFFFF;labelBackgroundColor=none;" parent="1" source="225" target="178" edge="1"><mxGeometry relative="1" as="geometry"><Array as="points"><mxPoint x="120" y="3228"/><mxPoint x="120" y="2320"/></Array></mxGeometry></mxCell><mxCell id="280" style="edgeStyle=orthogonalEdgeStyle;rounded=0;orthogonalLoop=1;jettySize=auto;html=1;entryX=0;entryY=1;entryDx=0;entryDy=0;fontFamily=Helvetica;fontSize=13;strokeWidth=5;fontColor=#FFFFFF;labelBackgroundColor=none;" parent="1" source="226" target="212" edge="1"><mxGeometry relative="1" as="geometry"><Array as="points"><mxPoint x="130" y="3178"/><mxPoint x="130" y="2460"/></Array></mxGeometry></mxCell><mxCell id="281" value="&lt;h3&gt;Statistik&lt;/h3&gt;" style="text;html=1;align=center;verticalAlign=middle;whiteSpace=wrap;rounded=0;fontFamily=Helvetica;fontSize=13;fontColor=#FFFFFF;labelBackgroundColor=none;" parent="1" vertex="1"><mxGeometry x="364" y="1920" width="120" height="30" as="geometry"/></mxCell><mxCell id="282" value="top 10 of singelpayer" style="shape=table;startSize=20;container=1;collapsible=0;childLayout=tableLayout;fontStyle=1;align=center;fontFamily=Helvetica;fontSize=13;html=1;fontColor=#FFFFFF;labelBackgroundColor=none;" parent="1" vertex="1"><mxGeometry x="330" y="1960" width="180" height="117" as="geometry"/></mxCell><mxCell id="283" value="" style="shape=tableRow;horizontal=0;startSize=0;swimlaneHead=0;swimlaneBody=0;top=0;left=0;bottom=0;right=0;collapsible=0;dropTarget=0;points=[[0,0.5],[1,0.5]];portConstraint=eastwest;fontFamily=Helvetica;fontSize=13;html=1;fontColor=#FFFFFF;labelBackgroundColor=none;" parent="282" vertex="1"><mxGeometry y="20" width="180" height="34" as="geometry"/></mxCell><mxCell id="284" value="1" style="shape=partialRectangle;html=1;whiteSpace=wrap;connectable=0;top=0;left=0;bottom=0;right=0;overflow=hidden;fontFamily=Helvetica;fontSize=13;fontColor=#FFFFFF;labelBackgroundColor=none;" parent="283" vertex="1"><mxGeometry width="30" height="34" as="geometry"><mxRectangle width="30" height="34" as="alternateBounds"/></mxGeometry></mxCell><mxCell id="285" value="hanz" style="shape=partialRectangle;html=1;whiteSpace=wrap;connectable=0;top=0;left=0;bottom=0;right=0;overflow=hidden;fontFamily=Helvetica;fontSize=13;fontColor=#FFFFFF;labelBackgroundColor=none;" parent="283" vertex="1"><mxGeometry x="30" width="80" height="34" as="geometry"><mxRectangle width="80" height="34" as="alternateBounds"/></mxGeometry></mxCell><mxCell id="286" value="434343" style="shape=partialRectangle;html=1;whiteSpace=wrap;connectable=0;top=0;left=0;bottom=0;right=0;overflow=hidden;fontFamily=Helvetica;fontSize=13;fontColor=#FFFFFF;labelBackgroundColor=none;" parent="283" vertex="1"><mxGeometry x="110" width="70" height="34" as="geometry"><mxRectangle width="70" height="34" as="alternateBounds"/></mxGeometry></mxCell><mxCell id="287" value="" style="shape=tableRow;horizontal=0;startSize=0;swimlaneHead=0;swimlaneBody=0;top=0;left=0;bottom=0;right=0;collapsible=0;dropTarget=0;points=[[0,0.5],[1,0.5]];portConstraint=eastwest;fontFamily=Helvetica;fontSize=13;html=1;fontColor=#FFFFFF;labelBackgroundColor=none;" parent="282" vertex="1"><mxGeometry y="54" width="180" height="33" as="geometry"/></mxCell><mxCell id="288" value="2" style="shape=partialRectangle;html=1;whiteSpace=wrap;connectable=0;top=0;left=0;bottom=0;right=0;overflow=hidden;fontFamily=Helvetica;fontSize=13;fontColor=#FFFFFF;labelBackgroundColor=none;" parent="287" vertex="1"><mxGeometry width="30" height="33" as="geometry"><mxRectangle width="30" height="33" as="alternateBounds"/></mxGeometry></mxCell><mxCell id="289" value="peter" style="shape=partialRectangle;html=1;whiteSpace=wrap;connectable=0;top=0;left=0;bottom=0;right=0;overflow=hidden;fontFamily=Helvetica;fontSize=13;fontColor=#FFFFFF;labelBackgroundColor=none;" parent="287" vertex="1"><mxGeometry x="30" width="80" height="33" as="geometry"><mxRectangle width="80" height="33" as="alternateBounds"/></mxGeometry></mxCell><mxCell id="290" value="33344" style="shape=partialRectangle;html=1;whiteSpace=wrap;connectable=0;top=0;left=0;bottom=0;right=0;overflow=hidden;fontFamily=Helvetica;fontSize=13;fontColor=#FFFFFF;labelBackgroundColor=none;" parent="287" vertex="1"><mxGeometry x="110" width="70" height="33" as="geometry"><mxRectangle width="70" height="33" as="alternateBounds"/></mxGeometry></mxCell><mxCell id="291" value="" style="shape=tableRow;horizontal=0;startSize=0;swimlaneHead=0;swimlaneBody=0;top=0;left=0;bottom=0;right=0;collapsible=0;dropTarget=0;points=[[0,0.5],[1,0.5]];portConstraint=eastwest;fontFamily=Helvetica;fontSize=13;html=1;fontColor=#FFFFFF;labelBackgroundColor=none;" parent="282" vertex="1"><mxGeometry y="87" width="180" height="30" as="geometry"/></mxCell><mxCell id="292" value="3" style="shape=partialRectangle;html=1;whiteSpace=wrap;connectable=0;top=0;left=0;bottom=0;right=0;overflow=hidden;fontFamily=Helvetica;fontSize=13;fontColor=#FFFFFF;labelBackgroundColor=none;" parent="291" vertex="1"><mxGeometry width="30" height="30" as="geometry"><mxRectangle width="30" height="30" as="alternateBounds"/></mxGeometry></mxCell><mxCell id="293" value="franka" style="shape=partialRectangle;html=1;whiteSpace=wrap;connectable=0;top=0;left=0;bottom=0;right=0;overflow=hidden;fontFamily=Helvetica;fontSize=13;fontColor=#FFFFFF;labelBackgroundColor=none;" parent="291" vertex="1"><mxGeometry x="30" width="80" height="30" as="geometry"><mxRectangle width="80" height="30" as="alternateBounds"/></mxGeometry></mxCell><mxCell id="294" value="2344" style="shape=partialRectangle;html=1;whiteSpace=wrap;connectable=0;top=0;left=0;bottom=0;right=0;overflow=hidden;fontFamily=Helvetica;fontSize=13;fontColor=#FFFFFF;labelBackgroundColor=none;" parent="291" vertex="1"><mxGeometry x="110" width="70" height="30" as="geometry"><mxRectangle width="70" height="30" as="alternateBounds"/></mxGeometry></mxCell><mxCell id="295" value="top 10 of 1 vs 1" style="shape=table;startSize=20;container=1;collapsible=0;childLayout=tableLayout;fontStyle=1;align=center;fontFamily=Helvetica;fontSize=13;html=1;fontColor=#FFFFFF;labelBackgroundColor=none;" parent="1" vertex="1"><mxGeometry x="210" y="2110" width="180" height="117" as="geometry"/></mxCell><mxCell id="296" value="" style="shape=tableRow;horizontal=0;startSize=0;swimlaneHead=0;swimlaneBody=0;top=0;left=0;bottom=0;right=0;collapsible=0;dropTarget=0;points=[[0,0.5],[1,0.5]];portConstraint=eastwest;fontFamily=Helvetica;fontSize=13;html=1;fontColor=#FFFFFF;labelBackgroundColor=none;" parent="295" vertex="1"><mxGeometry y="20" width="180" height="33" as="geometry"/></mxCell><mxCell id="297" value="1" style="shape=partialRectangle;html=1;whiteSpace=wrap;connectable=0;top=0;left=0;bottom=0;right=0;overflow=hidden;fontFamily=Helvetica;fontSize=13;fontColor=#FFFFFF;labelBackgroundColor=none;" parent="296" vertex="1"><mxGeometry width="30" height="33" as="geometry"><mxRectangle width="30" height="33" as="alternateBounds"/></mxGeometry></mxCell><mxCell id="298" value="hanz" style="shape=partialRectangle;html=1;whiteSpace=wrap;connectable=0;top=0;left=0;bottom=0;right=0;overflow=hidden;fontFamily=Helvetica;fontSize=13;fontColor=#FFFFFF;labelBackgroundColor=none;" parent="296" vertex="1"><mxGeometry x="30" width="80" height="33" as="geometry"><mxRectangle width="80" height="33" as="alternateBounds"/></mxGeometry></mxCell><mxCell id="299" value="434343" style="shape=partialRectangle;html=1;whiteSpace=wrap;connectable=0;top=0;left=0;bottom=0;right=0;overflow=hidden;fontFamily=Helvetica;fontSize=13;fontColor=#FFFFFF;labelBackgroundColor=none;" parent="296" vertex="1"><mxGeometry x="110" width="70" height="33" as="geometry"><mxRectangle width="70" height="33" as="alternateBounds"/></mxGeometry></mxCell><mxCell id="300" value="" style="shape=tableRow;horizontal=0;startSize=0;swimlaneHead=0;swimlaneBody=0;top=0;left=0;bottom=0;right=0;collapsible=0;dropTarget=0;points=[[0,0.5],[1,0.5]];portConstraint=eastwest;fontFamily=Helvetica;fontSize=13;html=1;fontColor=#FFFFFF;labelBackgroundColor=none;" parent="295" vertex="1"><mxGeometry y="53" width="180" height="34" as="geometry"/></mxCell><mxCell id="301" value="2" style="shape=partialRectangle;html=1;whiteSpace=wrap;connectable=0;top=0;left=0;bottom=0;right=0;overflow=hidden;fontFamily=Helvetica;fontSize=13;fontColor=#FFFFFF;labelBackgroundColor=none;" parent="300" vertex="1"><mxGeometry width="30" height="34" as="geometry"><mxRectangle width="30" height="34" as="alternateBounds"/></mxGeometry></mxCell><mxCell id="302" value="peter" style="shape=partialRectangle;html=1;whiteSpace=wrap;connectable=0;top=0;left=0;bottom=0;right=0;overflow=hidden;fontFamily=Helvetica;fontSize=13;fontColor=#FFFFFF;labelBackgroundColor=none;" parent="300" vertex="1"><mxGeometry x="30" width="80" height="34" as="geometry"><mxRectangle width="80" height="34" as="alternateBounds"/></mxGeometry></mxCell><mxCell id="303" value="33344" style="shape=partialRectangle;html=1;whiteSpace=wrap;connectable=0;top=0;left=0;bottom=0;right=0;overflow=hidden;fontFamily=Helvetica;fontSize=13;fontColor=#FFFFFF;labelBackgroundColor=none;" parent="300" vertex="1"><mxGeometry x="110" width="70" height="34" as="geometry"><mxRectangle width="70" height="34" as="alternateBounds"/></mxGeometry></mxCell><mxCell id="304" value="" style="shape=tableRow;horizontal=0;startSize=0;swimlaneHead=0;swimlaneBody=0;top=0;left=0;bottom=0;right=0;collapsible=0;dropTarget=0;points=[[0,0.5],[1,0.5]];portConstraint=eastwest;fontFamily=Helvetica;fontSize=13;html=1;fontColor=#FFFFFF;labelBackgroundColor=none;" parent="295" vertex="1"><mxGeometry y="87" width="180" height="30" as="geometry"/></mxCell><mxCell id="305" value="3" style="shape=partialRectangle;html=1;whiteSpace=wrap;connectable=0;top=0;left=0;bottom=0;right=0;overflow=hidden;fontFamily=Helvetica;fontSize=13;fontColor=#FFFFFF;labelBackgroundColor=none;" parent="304" vertex="1"><mxGeometry width="30" height="30" as="geometry"><mxRectangle width="30" height="30" as="alternateBounds"/></mxGeometry></mxCell><mxCell id="306" value="franka" style="shape=partialRectangle;html=1;whiteSpace=wrap;connectable=0;top=0;left=0;bottom=0;right=0;overflow=hidden;fontFamily=Helvetica;fontSize=13;fontColor=#FFFFFF;labelBackgroundColor=none;" parent="304" vertex="1"><mxGeometry x="30" width="80" height="30" as="geometry"><mxRectangle width="80" height="30" as="alternateBounds"/></mxGeometry></mxCell><mxCell id="307" value="2344" style="shape=partialRectangle;html=1;whiteSpace=wrap;connectable=0;top=0;left=0;bottom=0;right=0;overflow=hidden;fontFamily=Helvetica;fontSize=13;fontColor=#FFFFFF;labelBackgroundColor=none;" parent="304" vertex="1"><mxGeometry x="110" width="70" height="30" as="geometry"><mxRectangle width="70" height="30" as="alternateBounds"/></mxGeometry></mxCell><mxCell id="308" value="top 10 of 1 vs 2" style="shape=table;startSize=20;container=1;collapsible=0;childLayout=tableLayout;fontStyle=1;align=center;fontFamily=Helvetica;fontSize=13;html=1;fontColor=#FFFFFF;labelBackgroundColor=none;" parent="1" vertex="1"><mxGeometry x="470" y="2110" width="180" height="117" as="geometry"/></mxCell><mxCell id="309" value="" style="shape=tableRow;horizontal=0;startSize=0;swimlaneHead=0;swimlaneBody=0;top=0;left=0;bottom=0;right=0;collapsible=0;dropTarget=0;points=[[0,0.5],[1,0.5]];portConstraint=eastwest;fontFamily=Helvetica;fontSize=13;html=1;fontColor=#FFFFFF;labelBackgroundColor=none;" parent="308" vertex="1"><mxGeometry y="20" width="180" height="33" as="geometry"/></mxCell><mxCell id="310" value="1" style="shape=partialRectangle;html=1;whiteSpace=wrap;connectable=0;top=0;left=0;bottom=0;right=0;overflow=hidden;fontFamily=Helvetica;fontSize=13;fontColor=#FFFFFF;labelBackgroundColor=none;" parent="309" vertex="1"><mxGeometry width="30" height="33" as="geometry"><mxRectangle width="30" height="33" as="alternateBounds"/></mxGeometry></mxCell><mxCell id="311" value="hanz" style="shape=partialRectangle;html=1;whiteSpace=wrap;connectable=0;top=0;left=0;bottom=0;right=0;overflow=hidden;fontFamily=Helvetica;fontSize=13;fontColor=#FFFFFF;labelBackgroundColor=none;" parent="309" vertex="1"><mxGeometry x="30" width="100" height="33" as="geometry"><mxRectangle width="80" height="33" as="alternateBounds"/></mxGeometry></mxCell><mxCell id="312" value="434343" style="shape=partialRectangle;html=1;whiteSpace=wrap;connectable=0;top=0;left=0;bottom=0;right=0;overflow=hidden;fontFamily=Helvetica;fontSize=13;fontColor=#FFFFFF;labelBackgroundColor=none;" parent="309" vertex="1"><mxGeometry x="130" width="50" height="33" as="geometry"><mxRectangle width="70" height="33" as="alternateBounds"/></mxGeometry></mxCell><mxCell id="313" value="" style="shape=tableRow;horizontal=0;startSize=0;swimlaneHead=0;swimlaneBody=0;top=0;left=0;bottom=0;right=0;collapsible=0;dropTarget=0;points=[[0,0.5],[1,0.5]];portConstraint=eastwest;fontFamily=Helvetica;fontSize=13;html=1;fontColor=#FFFFFF;labelBackgroundColor=none;" parent="308" vertex="1"><mxGeometry y="53" width="180" height="34" as="geometry"/></mxCell><mxCell id="314" value="2" style="shape=partialRectangle;html=1;whiteSpace=wrap;connectable=0;top=0;left=0;bottom=0;right=0;overflow=hidden;fontFamily=Helvetica;fontSize=13;fontColor=#FFFFFF;labelBackgroundColor=none;" parent="313" vertex="1"><mxGeometry width="30" height="34" as="geometry"><mxRectangle width="30" height="34" as="alternateBounds"/></mxGeometry></mxCell><mxCell id="315" value="peter" style="shape=partialRectangle;html=1;whiteSpace=wrap;connectable=0;top=0;left=0;bottom=0;right=0;overflow=hidden;fontFamily=Helvetica;fontSize=13;fontColor=#FFFFFF;labelBackgroundColor=none;" parent="313" vertex="1"><mxGeometry x="30" width="100" height="34" as="geometry"><mxRectangle width="80" height="34" as="alternateBounds"/></mxGeometry></mxCell><mxCell id="316" value="33344" style="shape=partialRectangle;html=1;whiteSpace=wrap;connectable=0;top=0;left=0;bottom=0;right=0;overflow=hidden;fontFamily=Helvetica;fontSize=13;fontColor=#FFFFFF;labelBackgroundColor=none;" parent="313" vertex="1"><mxGeometry x="130" width="50" height="34" as="geometry"><mxRectangle width="70" height="34" as="alternateBounds"/></mxGeometry></mxCell><mxCell id="317" value="" style="shape=tableRow;horizontal=0;startSize=0;swimlaneHead=0;swimlaneBody=0;top=0;left=0;bottom=0;right=0;collapsible=0;dropTarget=0;points=[[0,0.5],[1,0.5]];portConstraint=eastwest;fontFamily=Helvetica;fontSize=13;html=1;fontColor=#FFFFFF;labelBackgroundColor=none;" parent="308" vertex="1"><mxGeometry y="87" width="180" height="30" as="geometry"/></mxCell><mxCell id="318" value="3" style="shape=partialRectangle;html=1;whiteSpace=wrap;connectable=0;top=0;left=0;bottom=0;right=0;overflow=hidden;fontFamily=Helvetica;fontSize=13;fontColor=#FFFFFF;labelBackgroundColor=none;" parent="317" vertex="1"><mxGeometry width="30" height="30" as="geometry"><mxRectangle width="30" height="30" as="alternateBounds"/></mxGeometry></mxCell><mxCell id="319" value="franka" style="shape=partialRectangle;html=1;whiteSpace=wrap;connectable=0;top=0;left=0;bottom=0;right=0;overflow=hidden;fontFamily=Helvetica;fontSize=13;fontColor=#FFFFFF;labelBackgroundColor=none;" parent="317" vertex="1"><mxGeometry x="30" width="100" height="30" as="geometry"><mxRectangle width="80" height="30" as="alternateBounds"/></mxGeometry></mxCell><mxCell id="320" value="2344" style="shape=partialRectangle;html=1;whiteSpace=wrap;connectable=0;top=0;left=0;bottom=0;right=0;overflow=hidden;fontFamily=Helvetica;fontSize=13;fontColor=#FFFFFF;labelBackgroundColor=none;" parent="317" vertex="1"><mxGeometry x="130" width="50" height="30" as="geometry"><mxRectangle width="70" height="30" as="alternateBounds"/></mxGeometry></mxCell><mxCell id="321" value="top 10 of 1 vs 4" style="shape=table;startSize=20;container=1;collapsible=0;childLayout=tableLayout;fontStyle=1;align=center;fontFamily=Helvetica;fontSize=13;html=1;fontColor=#FFFFFF;labelBackgroundColor=none;" parent="1" vertex="1"><mxGeometry x="470" y="2280" width="180" height="117" as="geometry"/></mxCell><mxCell id="322" value="" style="shape=tableRow;horizontal=0;startSize=0;swimlaneHead=0;swimlaneBody=0;top=0;left=0;bottom=0;right=0;collapsible=0;dropTarget=0;points=[[0,0.5],[1,0.5]];portConstraint=eastwest;fontFamily=Helvetica;fontSize=13;html=1;fontColor=#FFFFFF;labelBackgroundColor=none;" parent="321" vertex="1"><mxGeometry y="20" width="180" height="33" as="geometry"/></mxCell><mxCell id="323" value="1" style="shape=partialRectangle;html=1;whiteSpace=wrap;connectable=0;top=0;left=0;bottom=0;right=0;overflow=hidden;fontFamily=Helvetica;fontSize=13;fontColor=#FFFFFF;labelBackgroundColor=none;" parent="322" vertex="1"><mxGeometry width="30" height="33" as="geometry"><mxRectangle width="30" height="33" as="alternateBounds"/></mxGeometry></mxCell><mxCell id="324" value="hanz" style="shape=partialRectangle;html=1;whiteSpace=wrap;connectable=0;top=0;left=0;bottom=0;right=0;overflow=hidden;fontFamily=Helvetica;fontSize=13;fontColor=#FFFFFF;labelBackgroundColor=none;" parent="322" vertex="1"><mxGeometry x="30" width="80" height="33" as="geometry"><mxRectangle width="80" height="33" as="alternateBounds"/></mxGeometry></mxCell><mxCell id="325" value="434343" style="shape=partialRectangle;html=1;whiteSpace=wrap;connectable=0;top=0;left=0;bottom=0;right=0;overflow=hidden;fontFamily=Helvetica;fontSize=13;fontColor=#FFFFFF;labelBackgroundColor=none;" parent="322" vertex="1"><mxGeometry x="110" width="70" height="33" as="geometry"><mxRectangle width="70" height="33" as="alternateBounds"/></mxGeometry></mxCell><mxCell id="326" value="" style="shape=tableRow;horizontal=0;startSize=0;swimlaneHead=0;swimlaneBody=0;top=0;left=0;bottom=0;right=0;collapsible=0;dropTarget=0;points=[[0,0.5],[1,0.5]];portConstraint=eastwest;fontFamily=Helvetica;fontSize=13;html=1;fontColor=#FFFFFF;labelBackgroundColor=none;" parent="321" vertex="1"><mxGeometry y="53" width="180" height="34" as="geometry"/></mxCell><mxCell id="327" value="2" style="shape=partialRectangle;html=1;whiteSpace=wrap;connectable=0;top=0;left=0;bottom=0;right=0;overflow=hidden;fontFamily=Helvetica;fontSize=13;fontColor=#FFFFFF;labelBackgroundColor=none;" parent="326" vertex="1"><mxGeometry width="30" height="34" as="geometry"><mxRectangle width="30" height="34" as="alternateBounds"/></mxGeometry></mxCell><mxCell id="328" value="peter" style="shape=partialRectangle;html=1;whiteSpace=wrap;connectable=0;top=0;left=0;bottom=0;right=0;overflow=hidden;fontFamily=Helvetica;fontSize=13;fontColor=#FFFFFF;labelBackgroundColor=none;" parent="326" vertex="1"><mxGeometry x="30" width="80" height="34" as="geometry"><mxRectangle width="80" height="34" as="alternateBounds"/></mxGeometry></mxCell><mxCell id="329" value="33344" style="shape=partialRectangle;html=1;whiteSpace=wrap;connectable=0;top=0;left=0;bottom=0;right=0;overflow=hidden;fontFamily=Helvetica;fontSize=13;fontColor=#FFFFFF;labelBackgroundColor=none;" parent="326" vertex="1"><mxGeometry x="110" width="70" height="34" as="geometry"><mxRectangle width="70" height="34" as="alternateBounds"/></mxGeometry></mxCell><mxCell id="330" value="" style="shape=tableRow;horizontal=0;startSize=0;swimlaneHead=0;swimlaneBody=0;top=0;left=0;bottom=0;right=0;collapsible=0;dropTarget=0;points=[[0,0.5],[1,0.5]];portConstraint=eastwest;fontFamily=Helvetica;fontSize=13;html=1;fontColor=#FFFFFF;labelBackgroundColor=none;" parent="321" vertex="1"><mxGeometry y="87" width="180" height="30" as="geometry"/></mxCell><mxCell id="331" value="3" style="shape=partialRectangle;html=1;whiteSpace=wrap;connectable=0;top=0;left=0;bottom=0;right=0;overflow=hidden;fontFamily=Helvetica;fontSize=13;fontColor=#FFFFFF;labelBackgroundColor=none;" parent="330" vertex="1"><mxGeometry width="30" height="30" as="geometry"><mxRectangle width="30" height="30" as="alternateBounds"/></mxGeometry></mxCell><mxCell id="332" value="franka" style="shape=partialRectangle;html=1;whiteSpace=wrap;connectable=0;top=0;left=0;bottom=0;right=0;overflow=hidden;fontFamily=Helvetica;fontSize=13;fontColor=#FFFFFF;labelBackgroundColor=none;" parent="330" vertex="1"><mxGeometry x="30" width="80" height="30" as="geometry"><mxRectangle width="80" height="30" as="alternateBounds"/></mxGeometry></mxCell><mxCell id="333" value="2344" style="shape=partialRectangle;html=1;whiteSpace=wrap;connectable=0;top=0;left=0;bottom=0;right=0;overflow=hidden;fontFamily=Helvetica;fontSize=13;fontColor=#FFFFFF;labelBackgroundColor=none;" parent="330" vertex="1"><mxGeometry x="110" width="70" height="30" as="geometry"><mxRectangle width="70" height="30" as="alternateBounds"/></mxGeometry></mxCell><mxCell id="334" value="top 10 of 1 vs 3" style="shape=table;startSize=20;container=1;collapsible=0;childLayout=tableLayout;fontStyle=1;align=center;fontFamily=Helvetica;fontSize=13;html=1;fontColor=#FFFFFF;labelBackgroundColor=none;" parent="1" vertex="1"><mxGeometry x="210" y="2280" width="180" height="117" as="geometry"/></mxCell><mxCell id="335" value="" style="shape=tableRow;horizontal=0;startSize=0;swimlaneHead=0;swimlaneBody=0;top=0;left=0;bottom=0;right=0;collapsible=0;dropTarget=0;points=[[0,0.5],[1,0.5]];portConstraint=eastwest;fontFamily=Helvetica;fontSize=13;html=1;fontColor=#FFFFFF;labelBackgroundColor=none;" parent="334" vertex="1"><mxGeometry y="20" width="180" height="33" as="geometry"/></mxCell><mxCell id="336" value="1" style="shape=partialRectangle;html=1;whiteSpace=wrap;connectable=0;top=0;left=0;bottom=0;right=0;overflow=hidden;fontFamily=Helvetica;fontSize=13;fontColor=#FFFFFF;labelBackgroundColor=none;" parent="335" vertex="1"><mxGeometry width="30" height="33" as="geometry"><mxRectangle width="30" height="33" as="alternateBounds"/></mxGeometry></mxCell><mxCell id="337" value="hanz" style="shape=partialRectangle;html=1;whiteSpace=wrap;connectable=0;top=0;left=0;bottom=0;right=0;overflow=hidden;fontFamily=Helvetica;fontSize=13;fontColor=#FFFFFF;labelBackgroundColor=none;" parent="335" vertex="1"><mxGeometry x="30" width="80" height="33" as="geometry"><mxRectangle width="80" height="33" as="alternateBounds"/></mxGeometry></mxCell><mxCell id="338" value="434343" style="shape=partialRectangle;html=1;whiteSpace=wrap;connectable=0;top=0;left=0;bottom=0;right=0;overflow=hidden;fontFamily=Helvetica;fontSize=13;fontColor=#FFFFFF;labelBackgroundColor=none;" parent="335" vertex="1"><mxGeometry x="110" width="70" height="33" as="geometry"><mxRectangle width="70" height="33" as="alternateBounds"/></mxGeometry></mxCell><mxCell id="339" value="" style="shape=tableRow;horizontal=0;startSize=0;swimlaneHead=0;swimlaneBody=0;top=0;left=0;bottom=0;right=0;collapsible=0;dropTarget=0;points=[[0,0.5],[1,0.5]];portConstraint=eastwest;fontFamily=Helvetica;fontSize=13;html=1;fontColor=#FFFFFF;labelBackgroundColor=none;" parent="334" vertex="1"><mxGeometry y="53" width="180" height="34" as="geometry"/></mxCell><mxCell id="340" value="2" style="shape=partialRectangle;html=1;whiteSpace=wrap;connectable=0;top=0;left=0;bottom=0;right=0;overflow=hidden;fontFamily=Helvetica;fontSize=13;fontColor=#FFFFFF;labelBackgroundColor=none;" parent="339" vertex="1"><mxGeometry width="30" height="34" as="geometry"><mxRectangle width="30" height="34" as="alternateBounds"/></mxGeometry></mxCell><mxCell id="341" value="peter" style="shape=partialRectangle;html=1;whiteSpace=wrap;connectable=0;top=0;left=0;bottom=0;right=0;overflow=hidden;fontFamily=Helvetica;fontSize=13;fontColor=#FFFFFF;labelBackgroundColor=none;" parent="339" vertex="1"><mxGeometry x="30" width="80" height="34" as="geometry"><mxRectangle width="80" height="34" as="alternateBounds"/></mxGeometry></mxCell><mxCell id="342" value="33344" style="shape=partialRectangle;html=1;whiteSpace=wrap;connectable=0;top=0;left=0;bottom=0;right=0;overflow=hidden;fontFamily=Helvetica;fontSize=13;fontColor=#FFFFFF;labelBackgroundColor=none;" parent="339" vertex="1"><mxGeometry x="110" width="70" height="34" as="geometry"><mxRectangle width="70" height="34" as="alternateBounds"/></mxGeometry></mxCell><mxCell id="343" value="" style="shape=tableRow;horizontal=0;startSize=0;swimlaneHead=0;swimlaneBody=0;top=0;left=0;bottom=0;right=0;collapsible=0;dropTarget=0;points=[[0,0.5],[1,0.5]];portConstraint=eastwest;fontFamily=Helvetica;fontSize=13;html=1;fontColor=#FFFFFF;labelBackgroundColor=none;" parent="334" vertex="1"><mxGeometry y="87" width="180" height="30" as="geometry"/></mxCell><mxCell id="344" value="3" style="shape=partialRectangle;html=1;whiteSpace=wrap;connectable=0;top=0;left=0;bottom=0;right=0;overflow=hidden;fontFamily=Helvetica;fontSize=13;fontColor=#FFFFFF;labelBackgroundColor=none;" parent="343" vertex="1"><mxGeometry width="30" height="30" as="geometry"><mxRectangle width="30" height="30" as="alternateBounds"/></mxGeometry></mxCell><mxCell id="345" value="franka" style="shape=partialRectangle;html=1;whiteSpace=wrap;connectable=0;top=0;left=0;bottom=0;right=0;overflow=hidden;fontFamily=Helvetica;fontSize=13;fontColor=#FFFFFF;labelBackgroundColor=none;" parent="343" vertex="1"><mxGeometry x="30" width="80" height="30" as="geometry"><mxRectangle width="80" height="30" as="alternateBounds"/></mxGeometry></mxCell><mxCell id="346" value="2344" style="shape=partialRectangle;html=1;whiteSpace=wrap;connectable=0;top=0;left=0;bottom=0;right=0;overflow=hidden;fontFamily=Helvetica;fontSize=13;fontColor=#FFFFFF;labelBackgroundColor=none;" parent="343" vertex="1"><mxGeometry x="110" width="70" height="30" as="geometry"><mxRectangle width="70" height="30" as="alternateBounds"/></mxGeometry></mxCell><mxCell id="347" style="edgeStyle=orthogonalEdgeStyle;rounded=0;orthogonalLoop=1;jettySize=auto;html=1;fontFamily=Helvetica;fontSize=13;strokeWidth=5;fontColor=#FFFFFF;labelBackgroundColor=none;" parent="1" source="348" edge="1"><mxGeometry relative="1" as="geometry"><mxPoint x="120" y="2427.4999999999995" as="targetPoint"/></mxGeometry></mxCell><mxCell id="348" value="zur startseite" style="labelPosition=center;verticalLabelPosition=middle;align=center;html=1;shape=mxgraph.basic.shaded_button;dx=10;fontSize=17;fontColor=#FFFFFF;labelBackgroundColor=none;" parent="1" vertex="1"><mxGeometry x="370" y="2410" width="120" height="35" as="geometry"/></mxCell><mxCell id="349" value="&lt;h1 style=&quot;font-family: &amp;#34;helvetica&amp;#34; ; font-style: normal ; letter-spacing: normal ; text-indent: 0px ; text-transform: none ; word-spacing: 0px ; font-size: 29px&quot;&gt;Statistik&lt;/h1&gt;&lt;ol style=&quot;font-family: &amp;#34;helvetica&amp;#34; ; font-style: normal ; font-weight: 400 ; letter-spacing: normal ; text-indent: 0px ; text-transform: none ; word-spacing: 0px ; font-size: 29px&quot;&gt;&lt;li&gt;&lt;font style=&quot;font-size: 29px&quot;&gt;tabellen mit daten aus der datenbank&amp;nbsp;&lt;/font&gt;füllen&lt;/li&gt;&lt;/ol&gt;" style="text;whiteSpace=wrap;html=1;fontSize=13;fontFamily=Helvetica;align=center;fontColor=#FFFFFF;labelBackgroundColor=none;" parent="1" vertex="1"><mxGeometry x="205" y="1640" width="450" height="200" as="geometry"/></mxCell><mxCell id="350" style="edgeStyle=orthogonalEdgeStyle;rounded=0;orthogonalLoop=1;jettySize=auto;html=1;entryX=-0.013;entryY=0.08;entryDx=0;entryDy=0;entryPerimeter=0;fontFamily=Helvetica;fontSize=13;strokeWidth=5;fontColor=#FFFFFF;labelBackgroundColor=none;" parent="1" source="351" target="358" edge="1"><mxGeometry relative="1" as="geometry"/></mxCell><mxCell id="351" value="div : container" style="swimlane;horizontal=0;fontSize=17;fontColor=#FFFFFF;labelBackgroundColor=none;" parent="1" vertex="1"><mxGeometry x="800" y="1650" width="210" height="320" as="geometry"/></mxCell><mxCell id="352" value="div : id : 1 player punkte tabelle" style="rounded=0;whiteSpace=wrap;html=1;fontSize=17;fontColor=#FFFFFF;labelBackgroundColor=none;" parent="351" vertex="1"><mxGeometry x="40" y="10" width="150" height="40" as="geometry"/></mxCell><mxCell id="353" value="div : id : 4 player punkte tabelle" style="rounded=0;whiteSpace=wrap;html=1;fontSize=17;fontColor=#FFFFFF;labelBackgroundColor=none;" parent="351" vertex="1"><mxGeometry x="40" y="160" width="150" height="40" as="geometry"/></mxCell><mxCell id="354" value="div : id : 5 player punkte tabelle" style="rounded=0;whiteSpace=wrap;html=1;fontSize=17;fontColor=#FFFFFF;labelBackgroundColor=none;" parent="351" vertex="1"><mxGeometry x="40" y="210" width="150" height="40" as="geometry"/></mxCell><mxCell id="355" value="div : id : 3 player punkte tabelle" style="rounded=0;whiteSpace=wrap;html=1;fontSize=17;fontColor=#FFFFFF;labelBackgroundColor=none;" parent="351" vertex="1"><mxGeometry x="40" y="110" width="150" height="40" as="geometry"/></mxCell><mxCell id="356" value="div : id : 2 player punkte tabelle" style="rounded=0;whiteSpace=wrap;html=1;fontSize=17;fontColor=#FFFFFF;labelBackgroundColor=none;" parent="351" vertex="1"><mxGeometry x="40" y="60" width="150" height="40" as="geometry"/></mxCell><mxCell id="357" value="buttons" style="rounded=0;whiteSpace=wrap;html=1;fontFamily=Helvetica;fontSize=13;fontColor=#FFFFFF;labelBackgroundColor=none;" parent="351" vertex="1"><mxGeometry x="45" y="260" width="120" height="60" as="geometry"/></mxCell><mxCell id="358" value="&lt;span style=&quot;font-weight: 700&quot;&gt;datenBank abfrage&lt;/span&gt;" style="swimlane;fontStyle=0;childLayout=stackLayout;horizontal=1;startSize=30;horizontalStack=0;resizeParent=1;resizeParentMax=0;resizeLast=0;collapsible=1;marginBottom=0;fontFamily=Helvetica;fontSize=13;html=1;fontColor=#FFFFFF;labelBackgroundColor=none;" parent="1" vertex="1"><mxGeometry x="1135" y="1665" width="330" height="90" as="geometry"/></mxCell><mxCell id="359" value="abfrage/füllen der tabellenBody des entsprechen divs" style="text;align=left;verticalAlign=middle;spacingLeft=4;spacingRight=4;overflow=hidden;points=[[0,0.5],[1,0.5]];portConstraint=eastwest;rotatable=0;fontFamily=Helvetica;fontSize=13;html=1;fontColor=#FFFFFF;labelBackgroundColor=none;" parent="358" vertex="1"><mxGeometry y="30" width="330" height="30" as="geometry"/></mxCell><mxCell id="360" value="füllen der div´s mit tabellenHead u Body&amp;nbsp;" style="text;align=left;verticalAlign=middle;spacingLeft=4;spacingRight=4;overflow=hidden;points=[[0,0.5],[1,0.5]];portConstraint=eastwest;rotatable=0;fontFamily=Helvetica;fontSize=13;html=1;fontColor=#FFFFFF;labelBackgroundColor=none;" parent="358" vertex="1"><mxGeometry y="60" width="330" height="30" as="geometry"/></mxCell><mxCell id="361" value="" style="verticalLabelPosition=bottom;verticalAlign=top;html=1;shape=mxgraph.basic.smiley;fontFamily=Helvetica;fontSize=29;fontColor=#FFFFFF;labelBackgroundColor=none;" parent="1" vertex="1"><mxGeometry x="-179" y="3120" width="33" height="30" as="geometry"/></mxCell><mxCell id="362" value="" style="verticalLabelPosition=bottom;verticalAlign=top;html=1;shape=mxgraph.basic.flash;fontFamily=Helvetica;fontSize=29;fontColor=#FFFFFF;labelBackgroundColor=none;" parent="1" vertex="1"><mxGeometry x="-167.5" y="3125" width="10" height="80" as="geometry"/></mxCell><mxCell id="363" value="" style="verticalLabelPosition=bottom;verticalAlign=top;html=1;shape=mxgraph.basic.smiley;fontFamily=Helvetica;fontSize=29;fontColor=#FFFFFF;labelBackgroundColor=none;" parent="1" vertex="1"><mxGeometry x="-441.5" y="3130" width="33" height="30" as="geometry"/></mxCell><mxCell id="364" value="" style="verticalLabelPosition=bottom;verticalAlign=top;html=1;shape=mxgraph.basic.flash;fontFamily=Helvetica;fontSize=29;fontColor=#FFFFFF;labelBackgroundColor=none;" parent="1" vertex="1"><mxGeometry x="-430" y="3135" width="10" height="80" as="geometry"/></mxCell><mxCell id="365" value="" style="verticalLabelPosition=bottom;verticalAlign=top;html=1;shape=mxgraph.basic.flash;fontFamily=Helvetica;fontSize=29;fontColor=#FFFFFF;labelBackgroundColor=none;" parent="1" vertex="1"><mxGeometry x="-167.5" y="3125" width="10" height="80" as="geometry"/></mxCell><mxCell id="366" value="" style="verticalLabelPosition=bottom;verticalAlign=top;html=1;shape=mxgraph.basic.flash;fontFamily=Helvetica;fontSize=29;fontColor=#FFFFFF;labelBackgroundColor=none;" parent="1" vertex="1"><mxGeometry x="-430" y="3135" width="10" height="80" as="geometry"/></mxCell><mxCell id="367" value="" style="verticalLabelPosition=bottom;verticalAlign=top;html=1;shape=mxgraph.basic.flash;fontFamily=Helvetica;fontSize=29;fontColor=#FFFFFF;labelBackgroundColor=none;" parent="1" vertex="1"><mxGeometry x="-430" y="2910" width="10" height="80" as="geometry"/></mxCell><mxCell id="368" value="" style="verticalLabelPosition=bottom;verticalAlign=top;html=1;shape=mxgraph.basic.smiley;fontFamily=Helvetica;fontSize=29;fontColor=#FFFFFF;labelBackgroundColor=none;" parent="1" vertex="1"><mxGeometry x="-441.5" y="2905" width="33" height="30" as="geometry"/></mxCell><mxCell id="369" value="" style="verticalLabelPosition=bottom;verticalAlign=top;html=1;shape=mxgraph.basic.smiley;fontFamily=Helvetica;fontSize=29;fontColor=#FFFFFF;labelBackgroundColor=none;" parent="1" vertex="1"><mxGeometry x="-179" y="3120" width="33" height="30" as="geometry"/></mxCell><mxCell id="370" value="" style="verticalLabelPosition=bottom;verticalAlign=top;html=1;shape=mxgraph.basic.smiley;fontFamily=Helvetica;fontSize=29;fontColor=#FFFFFF;labelBackgroundColor=none;" parent="1" vertex="1"><mxGeometry x="-441.5" y="3130" width="33" height="30" as="geometry"/></mxCell><mxCell id="372" style="edgeStyle=orthogonalEdgeStyle;rounded=0;orthogonalLoop=1;jettySize=auto;html=1;strokeWidth=5;" parent="1" source="371" edge="1"><mxGeometry relative="1" as="geometry"><mxPoint x="200" y="2783" as="targetPoint"/><Array as="points"><mxPoint x="140" y="2368"/><mxPoint x="140" y="2720"/><mxPoint x="200" y="2720"/></Array></mxGeometry></mxCell><mxCell id="371" value="einstellungen" style="labelPosition=center;verticalLabelPosition=middle;align=center;html=1;shape=mxgraph.basic.shaded_button;dx=10;fontSize=17;fontColor=#FFFFFF;labelBackgroundColor=none;" parent="1" vertex="1"><mxGeometry x="-240" y="2338" width="100" height="60" as="geometry"/></mxCell><mxCell id="374" value="" style="rounded=1;whiteSpace=wrap;html=1;strokeWidth=2;fillWeight=4;hachureGap=8;hachureAngle=45;fillColor=#e51400;sketch=1;gradientDirection=east;fillStyle=auto;fontColor=#ffffff;gradientColor=#ffffff;strokeColor=none;" parent="1" vertex="1"><mxGeometry x="170" y="3280" width="530" height="4" as="geometry"/></mxCell><mxCell id="375" value="" style="rounded=1;whiteSpace=wrap;html=1;strokeWidth=2;fillWeight=4;hachureGap=8;hachureAngle=45;fillColor=#1ba1e2;sketch=1;gradientDirection=east;fillStyle=auto;fontColor=#ffffff;gradientColor=#ffffff;strokeColor=none;" parent="1" vertex="1"><mxGeometry x="170" y="3270" width="530" height="4" as="geometry"/></mxCell><mxCell id="376" value="" style="rounded=1;whiteSpace=wrap;html=1;strokeWidth=2;fillWeight=4;hachureGap=8;hachureAngle=45;fillColor=#e3c800;sketch=1;gradientDirection=east;fillStyle=auto;fontColor=#000000;gradientColor=#ffffff;strokeColor=none;" parent="1" vertex="1"><mxGeometry x="170" y="3260" width="530" height="4" as="geometry"/></mxCell><mxCell id="377" value="spielfeld-hintergrund-farben" style="swimlane;strokeColor=#f0f0f0;gradientColor=#ffffff;" parent="1" vertex="1"><mxGeometry x="164" y="3230" width="536" height="60" as="geometry"/></mxCell><mxCell id="407" value="" style="rounded=1;whiteSpace=wrap;html=1;strokeWidth=2;fillWeight=4;hachureGap=8;hachureAngle=45;fillColor=#e51400;sketch=1;gradientDirection=east;fillStyle=auto;fontColor=#ffffff;gradientColor=#ffffff;strokeColor=none;" parent="1" vertex="1"><mxGeometry x="450" y="3210" width="250" height="4" as="geometry"/></mxCell><mxCell id="408" value="" style="rounded=1;whiteSpace=wrap;html=1;strokeWidth=2;fillWeight=4;hachureGap=8;hachureAngle=45;fillColor=#1ba1e2;sketch=1;gradientDirection=east;fillStyle=auto;fontColor=#ffffff;gradientColor=#ffffff;strokeColor=none;" parent="1" vertex="1"><mxGeometry x="450" y="3200" width="250" height="4" as="geometry"/></mxCell><mxCell id="409" value="" style="rounded=1;whiteSpace=wrap;html=1;strokeWidth=2;fillWeight=4;hachureGap=8;hachureAngle=45;fillColor=#e3c800;sketch=1;gradientDirection=east;fillStyle=auto;fontColor=#000000;gradientColor=#ffffff;strokeColor=none;" parent="1" vertex="1"><mxGeometry x="450" y="3190" width="250" height="4" as="geometry"/></mxCell><mxCell id="410" value="spielfeld-hintergrund-farben" style="swimlane;strokeColor=#f0f0f0;gradientColor=#ffffff;" parent="1" vertex="1"><mxGeometry x="440" y="3160" width="260" height="60" as="geometry"/></mxCell><mxCell id="412" value="spieler 5" style="swimlane;strokeColor=#f0f0f0;gradientColor=#ffffff;" parent="1" vertex="1"><mxGeometry x="440" y="3160" width="260" height="60" as="geometry"/></mxCell><mxCell id="413" value="" style="rounded=1;whiteSpace=wrap;html=1;strokeWidth=2;fillWeight=4;hachureGap=8;hachureAngle=45;fillColor=#e3c800;sketch=1;gradientDirection=east;fillStyle=auto;fontColor=#000000;gradientColor=#ffffff;strokeColor=none;" parent="1" vertex="1"><mxGeometry x="450" y="3190" width="250" height="4" as="geometry"/></mxCell><mxCell id="415" value="" style="rounded=1;whiteSpace=wrap;html=1;strokeWidth=2;fillWeight=4;hachureGap=8;hachureAngle=45;fillColor=#e3c800;sketch=1;gradientDirection=east;fillStyle=auto;fontColor=#000000;gradientColor=#ffffff;strokeColor=none;" parent="1" vertex="1"><mxGeometry x="450" y="3190" width="250" height="4" as="geometry"/></mxCell><mxCell id="420" value="spieler 4" style="swimlane;strokeColor=#f0f0f0;gradientColor=#ffffff;" parent="1" vertex="1"><mxGeometry x="164" y="3160" width="260" height="60" as="geometry"/></mxCell><mxCell id="421" value="" style="rounded=1;whiteSpace=wrap;html=1;strokeWidth=2;fillWeight=4;hachureGap=8;hachureAngle=45;fillColor=#e3c800;sketch=1;gradientDirection=east;fillStyle=auto;fontColor=#000000;gradientColor=#ffffff;strokeColor=none;" parent="420" vertex="1"><mxGeometry x="10" y="30" width="250" height="4" as="geometry"/></mxCell><mxCell id="422" value="" style="rounded=1;whiteSpace=wrap;html=1;strokeWidth=2;fillWeight=4;hachureGap=8;hachureAngle=45;fillColor=#1ba1e2;sketch=1;gradientDirection=east;fillStyle=auto;fontColor=#ffffff;gradientColor=#ffffff;strokeColor=none;" parent="420" vertex="1"><mxGeometry x="10" y="40" width="250" height="4" as="geometry"/></mxCell><mxCell id="423" value="" style="rounded=1;whiteSpace=wrap;html=1;strokeWidth=2;fillWeight=4;hachureGap=8;hachureAngle=45;fillColor=#e51400;sketch=1;gradientDirection=east;fillStyle=auto;fontColor=#ffffff;gradientColor=#ffffff;strokeColor=none;" parent="420" vertex="1"><mxGeometry x="10" y="50" width="250" height="4" as="geometry"/></mxCell><mxCell id="424" value="spieler 3" style="swimlane;strokeColor=#f0f0f0;gradientColor=#ffffff;" parent="1" vertex="1"><mxGeometry x="440" y="3090" width="260" height="60" as="geometry"/></mxCell><mxCell id="425" value="" style="rounded=1;whiteSpace=wrap;html=1;strokeWidth=2;fillWeight=4;hachureGap=8;hachureAngle=45;fillColor=#e3c800;sketch=1;gradientDirection=east;fillStyle=auto;fontColor=#000000;gradientColor=#ffffff;strokeColor=none;" parent="424" vertex="1"><mxGeometry x="10" y="30" width="250" height="4" as="geometry"/></mxCell><mxCell id="426" value="" style="rounded=1;whiteSpace=wrap;html=1;strokeWidth=2;fillWeight=4;hachureGap=8;hachureAngle=45;fillColor=#1ba1e2;sketch=1;gradientDirection=east;fillStyle=auto;fontColor=#ffffff;gradientColor=#ffffff;strokeColor=none;" parent="424" vertex="1"><mxGeometry x="10" y="40" width="250" height="4" as="geometry"/></mxCell><mxCell id="427" value="" style="rounded=1;whiteSpace=wrap;html=1;strokeWidth=2;fillWeight=4;hachureGap=8;hachureAngle=45;fillColor=#e51400;sketch=1;gradientDirection=east;fillStyle=auto;fontColor=#ffffff;gradientColor=#ffffff;strokeColor=none;" parent="424" vertex="1"><mxGeometry x="10" y="50" width="250" height="4" as="geometry"/></mxCell><mxCell id="428" value="spieler 2" style="swimlane;strokeColor=#f0f0f0;gradientColor=#ffffff;" parent="1" vertex="1"><mxGeometry x="164" y="3090" width="260" height="60" as="geometry"/></mxCell><mxCell id="429" value="" style="rounded=1;whiteSpace=wrap;html=1;strokeWidth=2;fillWeight=4;hachureGap=8;hachureAngle=45;fillColor=#e3c800;sketch=1;gradientDirection=east;fillStyle=auto;fontColor=#000000;gradientColor=#ffffff;strokeColor=none;" parent="428" vertex="1"><mxGeometry x="10" y="30" width="250" height="4" as="geometry"/></mxCell><mxCell id="430" value="" style="rounded=1;whiteSpace=wrap;html=1;strokeWidth=2;fillWeight=4;hachureGap=8;hachureAngle=45;fillColor=#1ba1e2;sketch=1;gradientDirection=east;fillStyle=auto;fontColor=#ffffff;gradientColor=#ffffff;strokeColor=none;" parent="428" vertex="1"><mxGeometry x="10" y="40" width="250" height="4" as="geometry"/></mxCell><mxCell id="431" value="" style="rounded=1;whiteSpace=wrap;html=1;strokeWidth=2;fillWeight=4;hachureGap=8;hachureAngle=45;fillColor=#e51400;sketch=1;gradientDirection=east;fillStyle=auto;fontColor=#ffffff;gradientColor=#ffffff;strokeColor=none;" parent="428" vertex="1"><mxGeometry x="10" y="50" width="250" height="4" as="geometry"/></mxCell><mxCell id="458" value="" style="endArrow=none;html=1;strokeColor=#000000;strokeWidth=5;fillColor=#ffffff;rounded=0;" parent="1" edge="1"><mxGeometry width="50" height="50" relative="1" as="geometry"><mxPoint x="330" y="3010" as="sourcePoint"/><mxPoint x="330.7697505292422" y="3009.7434164902525" as="targetPoint"/><Array as="points"/></mxGeometry></mxCell><mxCell id="459" value="sound" style="swimlane;" parent="1" vertex="1"><mxGeometry x="480" y="2850" width="160" height="230" as="geometry"/></mxCell><mxCell id="460" value="game musik an/aus" style="labelPosition=center;verticalLabelPosition=middle;align=center;html=1;shape=mxgraph.basic.shaded_button;dx=10;fontSize=17;fontColor=#FFFFFF;labelBackgroundColor=none;" parent="459" vertex="1"><mxGeometry x="10" y="97.5" width="140" height="35" as="geometry"/></mxCell><mxCell id="467" value="radio an/aus" style="labelPosition=center;verticalLabelPosition=middle;align=center;html=1;shape=mxgraph.basic.shaded_button;dx=10;fontSize=17;fontColor=#FFFFFF;labelBackgroundColor=none;" parent="459" vertex="1"><mxGeometry x="10" y="184" width="100" height="35" as="geometry"/></mxCell><mxCell id="468" value="game töne an/aus" style="labelPosition=center;verticalLabelPosition=middle;align=center;html=1;shape=mxgraph.basic.shaded_button;dx=10;fontSize=17;fontColor=#FFFFFF;labelBackgroundColor=none;" parent="459" vertex="1"><mxGeometry x="10" y="140" width="140" height="35" as="geometry"/></mxCell><mxCell id="469" value="radio an/aus" style="labelPosition=center;verticalLabelPosition=middle;align=center;html=1;shape=mxgraph.basic.shaded_button;dx=10;fontSize=17;fontColor=#FFFFFF;labelBackgroundColor=none;" parent="459" vertex="1"><mxGeometry x="10" y="184" width="140" height="35" as="geometry"/></mxCell><mxCell id="484" value="div : container" style="swimlane;horizontal=0;fontSize=17;fontColor=#FFFFFF;labelBackgroundColor=none;" parent="1" vertex="1"><mxGeometry x="740" y="2720" width="210" height="640" as="geometry"/></mxCell><mxCell id="485" value="div : id : 1 player farbeinstellung" style="rounded=0;whiteSpace=wrap;html=1;fontSize=17;fontColor=#FFFFFF;labelBackgroundColor=none;" parent="484" vertex="1"><mxGeometry x="40" y="10" width="150" height="40" as="geometry"/></mxCell><mxCell id="486" value="div : id : 4 player farbeinstellung" style="rounded=0;whiteSpace=wrap;html=1;fontSize=17;fontColor=#FFFFFF;labelBackgroundColor=none;" parent="484" vertex="1"><mxGeometry x="40" y="160" width="150" height="40" as="geometry"/></mxCell><mxCell id="487" value="div : id : 5 player farbeinstellung" style="rounded=0;whiteSpace=wrap;html=1;fontSize=17;fontColor=#FFFFFF;labelBackgroundColor=none;" parent="484" vertex="1"><mxGeometry x="40" y="220" width="150" height="40" as="geometry"/></mxCell><mxCell id="488" value="div : id : 3 player farbeinstellung" style="rounded=0;whiteSpace=wrap;html=1;fontSize=17;fontColor=#FFFFFF;labelBackgroundColor=none;" parent="484" vertex="1"><mxGeometry x="40" y="110" width="150" height="40" as="geometry"/></mxCell><mxCell id="489" value="div : id : 2 player farbeinstellung" style="rounded=0;whiteSpace=wrap;html=1;fontSize=17;fontColor=#FFFFFF;labelBackgroundColor=none;" parent="484" vertex="1"><mxGeometry x="40" y="60" width="150" height="40" as="geometry"/></mxCell><mxCell id="493" value="button" style="rounded=0;whiteSpace=wrap;html=1;fontFamily=Helvetica;fontSize=13;fontColor=#FFFFFF;labelBackgroundColor=none;fontStyle=1" parent="484" vertex="1"><mxGeometry x="50" y="560" width="120" height="60" as="geometry"/></mxCell><mxCell id="491" value="div : id : soundOptions " style="swimlane;fillColor=#2a2a2a;gradientColor=none;" parent="484" vertex="1"><mxGeometry x="32.5" y="430" width="165" height="120" as="geometry"/></mxCell><mxCell id="490" value="buttons" style="rounded=0;whiteSpace=wrap;html=1;fontFamily=Helvetica;fontSize=13;fontColor=#FFFFFF;labelBackgroundColor=none;" parent="491" vertex="1"><mxGeometry x="17.5" y="47.5" width="120" height="60" as="geometry"/></mxCell><mxCell id="496" value="schieberegler für die feld skalierung" style="rounded=0;whiteSpace=wrap;html=1;fontFamily=Helvetica;fontSize=13;fontColor=#FFFFFF;labelBackgroundColor=none;" parent="484" vertex="1"><mxGeometry x="45" y="314" width="120" height="27.5" as="geometry"/></mxCell><mxCell id="497" value="" style="rounded=0;whiteSpace=wrap;html=1;fontFamily=Helvetica;fontSize=13;fontColor=#FFFFFF;labelBackgroundColor=none;" parent="484" vertex="1"><mxGeometry x="45" y="360" width="120" height="27.5" as="geometry"/></mxCell><mxCell id="495" value="div : id : soundOptions " style="swimlane;fillColor=#2a2a2a;gradientColor=none;" parent="1" vertex="1"><mxGeometry x="770" y="3005" width="165" height="120" as="geometry"/></mxCell><mxCell id="440" value="spielfeld-skalierung" style="swimlane;fillColor=#2A2A2A;" parent="1" vertex="1"><mxGeometry x="179" y="2852.5" width="230" height="170" as="geometry"/></mxCell><mxCell id="455" value="" style="rounded=1;whiteSpace=wrap;html=1;fillColor=#a20025;strokeColor=#6F0000;fontColor=#ffffff;gradientDirection=east;gradientColor=#00CC00;" parent="440" vertex="1"><mxGeometry x="20" y="145" width="180" height="20" as="geometry"/></mxCell><mxCell id="432" value="spieler 1" style="swimlane;strokeColor=#f0f0f0;gradientColor=#ffffff;" parent="440" vertex="1"><mxGeometry x="-15" y="172.5" width="260" height="60" as="geometry"/></mxCell><mxCell id="433" value="" style="rounded=1;whiteSpace=wrap;html=1;strokeWidth=2;fillWeight=4;hachureGap=8;hachureAngle=45;fillColor=#e3c800;sketch=1;gradientDirection=east;fillStyle=auto;fontColor=#000000;gradientColor=#ffffff;strokeColor=none;" parent="432" vertex="1"><mxGeometry x="10" y="30" width="250" height="4" as="geometry"/></mxCell><mxCell id="434" value="" style="rounded=1;whiteSpace=wrap;html=1;strokeWidth=2;fillWeight=4;hachureGap=8;hachureAngle=45;fillColor=#1ba1e2;sketch=1;gradientDirection=east;fillStyle=auto;fontColor=#ffffff;gradientColor=#ffffff;strokeColor=none;" parent="432" vertex="1"><mxGeometry x="10" y="40" width="250" height="4" as="geometry"/></mxCell><mxCell id="435" value="" style="rounded=1;whiteSpace=wrap;html=1;strokeWidth=2;fillWeight=4;hachureGap=8;hachureAngle=45;fillColor=#e51400;sketch=1;gradientDirection=east;fillStyle=auto;fontColor=#ffffff;gradientColor=#ffffff;strokeColor=none;" parent="432" vertex="1"><mxGeometry x="10" y="50" width="250" height="4" as="geometry"/></mxCell><mxCell id="498" value="" style="shape=ext;double=1;rounded=1;whiteSpace=wrap;html=1;fillColor=#2a2a2a;gradientColor=none;" parent="440" vertex="1"><mxGeometry x="30" y="30" width="170" height="115" as="geometry"/></mxCell><mxCell id="465" value="" style="rounded=1;whiteSpace=wrap;html=1;fillColor=#a20025;strokeColor=#6F0000;fontColor=#ffffff;gradientDirection=east;gradientColor=#00CC00;" parent="440" vertex="1"><mxGeometry x="20" y="145" width="180" height="20" as="geometry"/></mxCell><mxCell id="464" value="" style="ellipse;whiteSpace=wrap;html=1;aspect=fixed;" parent="440" vertex="1"><mxGeometry x="21" y="140" width="30" height="30" as="geometry"/></mxCell><mxCell id="505" value="" style="shape=flexArrow;endArrow=classic;startArrow=classic;html=1;strokeColor=#00CC00;strokeWidth=5;gradientColor=none;fillColor=#2A2A2A;" parent="440" edge="1"><mxGeometry width="100" height="100" relative="1" as="geometry"><mxPoint x="55" y="127.5" as="sourcePoint"/><mxPoint x="165" y="47.5" as="targetPoint"/></mxGeometry></mxCell></root></mxGraphModel></diagram></mxfile>